<?xml version="1.0" encoding="UTF-8" standalone="no"?>
<svg
   xmlns:dc="http://purl.org/dc/elements/1.1/"
   xmlns:cc="http://creativecommons.org/ns#"
   xmlns:rdf="http://www.w3.org/1999/02/22-rdf-syntax-ns#"
   xmlns:svg="http://www.w3.org/2000/svg"
   xmlns="http://www.w3.org/2000/svg"
   xmlns:sodipodi="http://sodipodi.sourceforge.net/DTD/sodipodi-0.dtd"
   xmlns:inkscape="http://www.inkscape.org/namespaces/inkscape"
   version="1.0"
   width="212.05mm"
   height="155.57001mm"
   id="svg368"
   sodipodi:docname="Farkas' Lemma 3.svg"
   inkscape:version="0.92.4 (5da689c313, 2019-01-14)">
  <metadata
     id="metadata372">
    <rdf:RDF>
      <cc:Work
         rdf:about="">
        <dc:format>image/svg+xml</dc:format>
        <dc:type
           rdf:resource="http://purl.org/dc/dcmitype/StillImage" />
        <dc:title></dc:title>
      </cc:Work>
    </rdf:RDF>
  </metadata>
  <sodipodi:namedview
     pagecolor="#ffffff"
     bordercolor="#666666"
     borderopacity="1"
     objecttolerance="10"
     gridtolerance="10"
     guidetolerance="10"
     inkscape:pageopacity="0"
     inkscape:pageshadow="2"
     inkscape:window-width="640"
     inkscape:window-height="480"
     id="namedview370"
     showgrid="false"
     inkscape:zoom="0.39179045"
     inkscape:cx="400.72442"
     inkscape:cy="293.99057"
     inkscape:window-x="0"
     inkscape:window-y="0"
     inkscape:window-maximized="0"
     inkscape:current-layer="svg368" />
  <defs
     id="defs232">
    <clipPath
       clipPathUnits="userSpaceOnUse"
       id="clipEmfPath1">
      <path
         d="M 8.0065063,4.9640339 L 809.45779,4.9640339 L 809.45779,593.12199 L 8.0065063,593.12199 z"
         id="path228" />
    </clipPath>
    <pattern
       id="EMFhbasepattern"
       patternUnits="userSpaceOnUse"
       width="6"
       height="6"
       x="0"
       y="0" />
  </defs>
  <path
     style="fill:#000000;fill-rule:nonzero;fill-opacity:1;stroke:#000000;stroke-width:0.020016266px;stroke-linecap:butt;stroke-linejoin:round;stroke-miterlimit:4;stroke-dasharray:none;stroke-opacity:1;"
     clip-path="url(#clipEmfPath1)"
     d="  M 227.14458,587.5975   L 227.14458,54.884601   L 225.06289,54.884601   L 225.06289,587.5975   L 227.14458,587.5975  z    M 230.10699,56.205674   L 226.10374,48.199168   L 222.10048,56.205674   L 230.10699,56.205674  z   "
     id="path234" />
  <path
     style="fill:#000000;fill-rule:nonzero;fill-opacity:1;stroke:#000000;stroke-width:0.040032532px;stroke-linecap:butt;stroke-linejoin:round;stroke-miterlimit:4;stroke-dasharray:none;stroke-opacity:1;"
     clip-path="url(#clipEmfPath1)"
     d="  M 8.8071569,418.82034   L 678.07102,418.82034   L 678.07102,420.90204   L 8.8071569,420.90204   L 8.8071569,418.82034  z    M 676.74995,415.85794   L 684.75645,419.86119   L 676.74995,423.86444   L 676.74995,415.85794  z   "
     id="path236" />
  <path
     style="fill:#4472c4;fill-rule:nonzero;fill-opacity:1;stroke:#4472c4;stroke-width:0.040032532px;stroke-linecap:butt;stroke-linejoin:round;stroke-miterlimit:4;stroke-dasharray:none;stroke-opacity:1;"
     clip-path="url(#clipEmfPath1)"
     d="  M 226.5441,420.26152   L 572.06488,15.452557   L 571.06406,14.611874   L 225.54328,419.3808   z  M 570.58367,24.259714   L 572.42517,14.011386   L 562.6172,17.454184   C 562.25691,17.574281 562.05674,17.974607 562.17684,18.294867   C 562.29694,18.65516 562.69726,18.855322 563.05756,18.735225   L 571.78465,15.65272   L 570.90393,14.932134   L 569.2626,24.019519   C 569.22257,24.419844 569.46276,24.740104 569.82305,24.82017   C 570.18335,24.860202 570.50361,24.620007 570.58367,24.259714   z "
     id="path238" />
  <path
     style="fill:#4472c4;fill-rule:nonzero;fill-opacity:1;stroke:#4472c4;stroke-width:0.040032532px;stroke-linecap:butt;stroke-linejoin:round;stroke-miterlimit:4;stroke-dasharray:none;stroke-opacity:1;"
     d="  M 226.38397,420.34158   L 752.89182,90.233326   L 752.17123,89.072383   L 225.70341,419.22067   z  M 748.8085,98.1998   L 753.61241,88.952285   L 743.20395,89.312578   C 742.84366,89.312578 742.56343,89.632838 742.56343,89.993131   C 742.60346,90.353424 742.88369,90.633651 743.28401,90.633651   L 752.53153,90.353424   L 751.93104,89.35261   L 747.60753,97.559279   C 747.4474,97.919572 747.56749,98.319897 747.88775,98.480028   C 748.20801,98.640158 748.60834,98.52006 748.8085,98.1998   z "
     id="path240" />
  <path
     style="fill:none;stroke:#4472c4;stroke-width:0.64052051px;stroke-linecap:butt;stroke-linejoin:miter;stroke-miterlimit:8;stroke-dasharray:none;stroke-opacity:1;"
     d="  M 235.31122,405.8498   L 248.80218,405.8498  "
     id="path242" />
  <path
     style="fill:none;stroke:#4472c4;stroke-width:0.64052051px;stroke-linecap:butt;stroke-linejoin:miter;stroke-miterlimit:8;stroke-dasharray:none;stroke-opacity:1;"
     d="  M 268.29803,370.46105   L 304.54748,370.46105  "
     id="path244" />
  <path
     style="fill:none;stroke:#4472c4;stroke-width:0.64052051px;stroke-linecap:butt;stroke-linejoin:miter;stroke-miterlimit:8;stroke-dasharray:none;stroke-opacity:1;"
     d="  M 304.48743,332.51021   L 364.33607,332.51021  "
     id="path246" />
  <path
     style="fill:none;stroke:#4472c4;stroke-width:0.64052051px;stroke-linecap:butt;stroke-linejoin:miter;stroke-miterlimit:8;stroke-dasharray:none;stroke-opacity:1;"
     d="  M 334.43177,293.75872   L 421.66265,293.75872  "
     id="path248" />
  <path
     style="fill:none;stroke:#4472c4;stroke-width:0.64052051px;stroke-linecap:butt;stroke-linejoin:miter;stroke-miterlimit:8;stroke-dasharray:none;stroke-opacity:1;"
     d="  M 364.3761,254.36671   L 489.95815,254.36671  "
     id="path250" />
  <path
     style="fill:none;stroke:#4472c4;stroke-width:0.64052051px;stroke-linecap:butt;stroke-linejoin:miter;stroke-miterlimit:8;stroke-dasharray:none;stroke-opacity:1;"
     d="  M 399.28447,216.89626   L 550.56741,216.89626  "
     id="path252" />
  <path
     style="fill:none;stroke:#4472c4;stroke-width:0.64052051px;stroke-linecap:butt;stroke-linejoin:miter;stroke-miterlimit:8;stroke-dasharray:none;stroke-opacity:1;"
     d="  M 438.67648,171.57943   L 623.06632,171.57943  "
     id="path254" />
  <path
     style="fill:none;stroke:#4472c4;stroke-width:0.64052051px;stroke-linecap:butt;stroke-linejoin:miter;stroke-miterlimit:8;stroke-dasharray:none;stroke-opacity:1;"
     d="  M 474.86589,128.66456   L 684.51626,128.66456  "
     id="path256" />
  <path
     style="fill:#548235;fill-rule:evenodd;fill-opacity:1;stroke:none;"
     d="  M 560.69564,338.43502   C 560.69564,335.19239 563.37782,332.51021 566.62045,332.51021   C 569.90312,332.51021 572.54527,335.19239 572.54527,338.43502   C 572.54527,341.71769 569.90312,344.35984 566.62045,344.35984   C 563.37782,344.35984 560.69564,341.71769 560.69564,338.43502   z "
     id="path258" />
  <path
     style="fill:none;stroke:#548235;stroke-width:1.281041px;stroke-linecap:butt;stroke-linejoin:miter;stroke-miterlimit:8;stroke-dasharray:none;stroke-opacity:1;"
     d="  M 560.69564,338.43502   C 560.69564,335.19239 563.37782,332.51021 566.62045,332.51021   C 569.90312,332.51021 572.54527,335.19239 572.54527,338.43502   C 572.54527,341.71769 569.90312,344.35984 566.62045,344.35984   C 563.37782,344.35984 560.69564,341.71769 560.69564,338.43502  "
     id="path260" />
  <text
     xml:space="preserve"
     style="font-size:24.000000px;font-style:normal;font-variant:normal;font-weight:400;font-stretch:Normal;line-height:125.000000%;letter-spacing:0px;word-spacing:0px;fill:#000000;fill-opacity:1;stroke:none;font-family:Cambria Math;text-align:start;text-anchor:start;"
     transform="matrix(1.000000,-0.000000,0.000000,1.000000,581.955960,345.036167)"
     x="0.000000"
     y="0.000000"
     id="text266"><tspan
       sodipodi:role="line"
       x="0.000000"
       y="0.000000"
       id="tspan264"><tspan
         dx="0.000000"
         dy="0.000000"
         style="fill:#000000;font-size:24.000000px;font-style:normal;font-variant:normal;font-weight:400;font-stretch:Normal;font-family:Cambria Math;"
         id="tspan262">ܾ</tspan></tspan></text>
  <path
     style="fill:#ed7d31;fill-rule:nonzero;fill-opacity:1;stroke:#ed7d31;stroke-width:0.040032532px;stroke-linecap:butt;stroke-linejoin:round;stroke-miterlimit:4;stroke-dasharray:none;stroke-opacity:1;"
     d="  M 581.95596,345.03617   M 581.95596,345.03617   M 561.65642,334.91216   L 506.37149,254.00641   L 508.09289,252.80544   L 563.37782,333.75122   L 561.65642,334.91216  z    M 504.69012,256.76866   L 503.44912,247.88144   L 511.29549,252.24498   L 504.69012,256.76866  z   "
     id="path268" />
  <text
     xml:space="preserve"
     style="font-size:24.000000px;font-style:normal;font-variant:normal;font-weight:400;font-stretch:Normal;line-height:125.000000%;letter-spacing:0px;word-spacing:0px;fill:#000000;fill-opacity:1;stroke:none;font-family:Cambria Math;text-align:start;text-anchor:start;"
     transform="matrix(1.000000,-0.000000,0.000000,1.000000,546.186111,282.799674)"
     x="0.000000"
     y="0.000000"
     id="text274"><tspan
       sodipodi:role="line"
       x="0.000000"
       y="0.000000"
       id="tspan272"><tspan
         dx="0.000000"
         dy="0.000000"
         style="fill:#C55A11;font-size:24.000000px;font-style:normal;font-variant:normal;font-weight:400;font-stretch:Normal;font-family:Cambria Math;"
         id="tspan270">ݒ</tspan></tspan></text>
  <text
     xml:space="preserve"
     style="font-size:24.000000px;font-style:normal;font-variant:normal;font-weight:400;font-stretch:Normal;line-height:125.000000%;letter-spacing:0px;word-spacing:0px;fill:#000000;fill-opacity:1;stroke:none;font-family:Cambria Math;text-align:start;text-anchor:start;"
     transform="matrix(1.000000,-0.000000,0.000000,1.000000,439.143227,71.110276)"
     x="0.000000"
     y="0.000000"
     id="text280"><tspan
       sodipodi:role="line"
       x="0.000000"
       y="0.000000"
       id="tspan278"><tspan
         dx="0.000000"
         dy="0.000000"
         style="fill:#333F50;font-size:24.000000px;font-style:normal;font-variant:normal;font-weight:400;font-stretch:Normal;font-family:Cambria Math;"
         id="tspan276">ܣ</tspan></tspan></text>
  <text
     xml:space="preserve"
     style="font-size:17.625000px;font-style:normal;font-variant:normal;font-weight:400;font-stretch:Normal;line-height:125.000000%;letter-spacing:0px;word-spacing:0px;fill:#000000;fill-opacity:1;stroke:none;font-family:Cambria Math;text-align:start;text-anchor:start;"
     transform="matrix(1.000000,-0.000000,0.000000,1.000000,453.715068,76.074310)"
     x="0.000000"
     y="0.000000"
     id="text286"><tspan
       sodipodi:role="line"
       x="0.000000"
       y="0.000000"
       id="tspan284"><tspan
         dx="0.000000"
         dy="0.000000"
         style="fill:#333F50;font-size:17.625000px;font-style:normal;font-variant:normal;font-weight:400;font-stretch:Normal;font-family:Cambria Math;"
         id="tspan282">ௌ</tspan></tspan></text>
  <text
     xml:space="preserve"
     style="font-size:24.000000px;font-style:normal;font-variant:normal;font-weight:400;font-stretch:Normal;line-height:125.000000%;letter-spacing:0px;word-spacing:0px;fill:#000000;fill-opacity:1;stroke:none;font-family:Cambria Math;text-align:start;text-anchor:start;"
     transform="matrix(1.000000,-0.000000,0.000000,1.000000,464.764047,71.110276)"
     x="0.000000"
     y="0.000000"
     id="text292"><tspan
       sodipodi:role="line"
       x="0.000000"
       y="0.000000"
       id="tspan290"><tspan
         dx="0.000000"
         dy="0.000000"
         style="fill:#333F50;font-size:24.000000px;font-style:normal;font-variant:normal;font-weight:400;font-stretch:Normal;font-family:Cambria Math;"
         id="tspan288">ሾ</tspan></tspan></text>
  <text
     xml:space="preserve"
     style="font-size:24.000000px;font-style:normal;font-variant:normal;font-weight:400;font-stretch:Normal;line-height:125.000000%;letter-spacing:0px;word-spacing:0px;fill:#000000;fill-opacity:1;stroke:none;font-family:Cambria Math;text-align:start;text-anchor:start;"
     transform="matrix(1.000000,-0.000000,0.000000,1.000000,473.090814,71.110276)"
     x="0.000000"
     y="0.000000"
     id="text298"><tspan
       sodipodi:role="line"
       x="0.000000"
       y="0.000000"
       id="tspan296"><tspan
         dx="0.000000"
         dy="0.000000"
         style="fill:#333F50;font-size:24.000000px;font-style:normal;font-variant:normal;font-weight:400;font-stretch:Normal;font-family:Cambria Math;"
         id="tspan294">ǣ</tspan></tspan></text>
  <text
     xml:space="preserve"
     style="font-size:24.000000px;font-style:normal;font-variant:normal;font-weight:400;font-stretch:Normal;line-height:125.000000%;letter-spacing:0px;word-spacing:0px;fill:#000000;fill-opacity:1;stroke:none;font-family:Cambria Math;text-align:start;text-anchor:start;"
     transform="matrix(1.000000,-0.000000,0.000000,1.000000,483.339142,71.110276)"
     x="0.000000"
     y="0.000000"
     id="text304"><tspan
       sodipodi:role="line"
       x="0.000000"
       y="0.000000"
       id="tspan302"><tspan
         dx="0.000000"
         dy="0.000000"
         style="fill:#333F50;font-size:24.000000px;font-style:normal;font-variant:normal;font-weight:400;font-stretch:Normal;font-family:Cambria Math;"
         id="tspan300">ǡ</tspan></tspan></text>
  <text
     xml:space="preserve"
     style="font-size:24.000000px;font-style:normal;font-variant:normal;font-weight:400;font-stretch:Normal;line-height:125.000000%;letter-spacing:0px;word-spacing:0px;fill:#000000;fill-opacity:1;stroke:none;font-family:Cambria Math;text-align:start;text-anchor:start;"
     transform="matrix(1.000000,-0.000000,0.000000,1.000000,492.306429,71.110276)"
     x="0.000000"
     y="0.000000"
     id="text310"><tspan
       sodipodi:role="line"
       x="0.000000"
       y="0.000000"
       id="tspan308"><tspan
         dx="0.000000"
         dy="0.000000"
         style="fill:#333F50;font-size:24.000000px;font-style:normal;font-variant:normal;font-weight:400;font-stretch:Normal;font-family:Cambria Math;"
         id="tspan306">ͳ</tspan></tspan></text>
  <text
     xml:space="preserve"
     style="font-size:24.000000px;font-style:normal;font-variant:normal;font-weight:400;font-stretch:Normal;line-height:125.000000%;letter-spacing:0px;word-spacing:0px;fill:#000000;fill-opacity:1;stroke:none;font-family:Cambria Math;text-align:start;text-anchor:start;"
     transform="matrix(1.000000,-0.000000,0.000000,1.000000,505.597229,71.110276)"
     x="0.000000"
     y="0.000000"
     id="text316"><tspan
       sodipodi:role="line"
       x="0.000000"
       y="0.000000"
       id="tspan314"><tspan
         dx="0.000000"
         dy="0.000000"
         style="fill:#333F50;font-size:24.000000px;font-style:normal;font-variant:normal;font-weight:400;font-stretch:Normal;font-family:Cambria Math;"
         id="tspan312">ሿ</tspan></tspan></text>
  <text
     xml:space="preserve"
     style="font-size:24.000000px;font-style:normal;font-variant:normal;font-weight:400;font-stretch:Normal;line-height:125.000000%;letter-spacing:0px;word-spacing:0px;fill:#000000;fill-opacity:1;stroke:none;font-family:Cambria Math;text-align:start;text-anchor:start;"
     transform="matrix(1.000000,-0.000000,0.000000,1.000000,721.062048,125.110487)"
     x="0.000000"
     y="0.000000"
     id="text322"><tspan
       sodipodi:role="line"
       x="0.000000"
       y="0.000000"
       id="tspan320"><tspan
         dx="0.000000"
         dy="0.000000"
         style="fill:#333F50;font-size:24.000000px;font-style:normal;font-variant:normal;font-weight:400;font-stretch:Normal;font-family:Cambria Math;"
         id="tspan318">ܣ</tspan></tspan></text>
  <text
     xml:space="preserve"
     style="font-size:17.625000px;font-style:normal;font-variant:normal;font-weight:400;font-stretch:Normal;line-height:125.000000%;letter-spacing:0px;word-spacing:0px;fill:#000000;fill-opacity:1;stroke:none;font-family:Cambria Math;text-align:start;text-anchor:start;"
     transform="matrix(1.000000,-0.000000,0.000000,1.000000,735.633890,130.074530)"
     x="0.000000"
     y="0.000000"
     id="text328"><tspan
       sodipodi:role="line"
       x="0.000000"
       y="0.000000"
       id="tspan326"><tspan
         dx="0.000000"
         dy="0.000000"
         style="fill:#333F50;font-size:17.625000px;font-style:normal;font-variant:normal;font-weight:400;font-stretch:Normal;font-family:Cambria Math;"
         id="tspan324">ௌ</tspan></tspan></text>
  <text
     xml:space="preserve"
     style="font-size:24.000000px;font-style:normal;font-variant:normal;font-weight:400;font-stretch:Normal;line-height:125.000000%;letter-spacing:0px;word-spacing:0px;fill:#000000;fill-opacity:1;stroke:none;font-family:Cambria Math;text-align:start;text-anchor:start;"
     transform="matrix(1.000000,-0.000000,0.000000,1.000000,746.682869,125.110487)"
     x="0.000000"
     y="0.000000"
     id="text334"><tspan
       sodipodi:role="line"
       x="0.000000"
       y="0.000000"
       id="tspan332"><tspan
         dx="0.000000"
         dy="0.000000"
         style="fill:#333F50;font-size:24.000000px;font-style:normal;font-variant:normal;font-weight:400;font-stretch:Normal;font-family:Cambria Math;"
         id="tspan330">ሾ</tspan></tspan></text>
  <text
     xml:space="preserve"
     style="font-size:24.000000px;font-style:normal;font-variant:normal;font-weight:400;font-stretch:Normal;line-height:125.000000%;letter-spacing:0px;word-spacing:0px;fill:#000000;fill-opacity:1;stroke:none;font-family:Cambria Math;text-align:start;text-anchor:start;"
     transform="matrix(1.000000,-0.000000,0.000000,1.000000,755.009635,125.110487)"
     x="0.000000"
     y="0.000000"
     id="text340"><tspan
       sodipodi:role="line"
       x="0.000000"
       y="0.000000"
       id="tspan338"><tspan
         dx="0.000000"
         dy="0.000000"
         style="fill:#333F50;font-size:24.000000px;font-style:normal;font-variant:normal;font-weight:400;font-stretch:Normal;font-family:Cambria Math;"
         id="tspan336">ǣ</tspan></tspan></text>
  <text
     xml:space="preserve"
     style="font-size:24.000000px;font-style:normal;font-variant:normal;font-weight:400;font-stretch:Normal;line-height:125.000000%;letter-spacing:0px;word-spacing:0px;fill:#000000;fill-opacity:1;stroke:none;font-family:Cambria Math;text-align:start;text-anchor:start;"
     transform="matrix(1.000000,-0.000000,0.000000,1.000000,765.257963,125.110487)"
     x="0.000000"
     y="0.000000"
     id="text346"><tspan
       sodipodi:role="line"
       x="0.000000"
       y="0.000000"
       id="tspan344"><tspan
         dx="0.000000"
         dy="0.000000"
         style="fill:#333F50;font-size:24.000000px;font-style:normal;font-variant:normal;font-weight:400;font-stretch:Normal;font-family:Cambria Math;"
         id="tspan342">ǡ</tspan></tspan></text>
  <text
     xml:space="preserve"
     style="font-size:24.000000px;font-style:normal;font-variant:normal;font-weight:400;font-stretch:Normal;line-height:125.000000%;letter-spacing:0px;word-spacing:0px;fill:#000000;fill-opacity:1;stroke:none;font-family:Cambria Math;text-align:start;text-anchor:start;"
     transform="matrix(1.000000,-0.000000,0.000000,1.000000,774.225250,125.110487)"
     x="0.000000"
     y="0.000000"
     id="text352"><tspan
       sodipodi:role="line"
       x="0.000000"
       y="0.000000"
       id="tspan350"><tspan
         dx="0.000000"
         dy="0.000000"
         style="fill:#333F50;font-size:24.000000px;font-style:normal;font-variant:normal;font-weight:400;font-stretch:Normal;font-family:Cambria Math;"
         id="tspan348">ʹ</tspan></tspan></text>
  <text
     xml:space="preserve"
     style="font-size:24.000000px;font-style:normal;font-variant:normal;font-weight:400;font-stretch:Normal;line-height:125.000000%;letter-spacing:0px;word-spacing:0px;fill:#000000;fill-opacity:1;stroke:none;font-family:Cambria Math;text-align:start;text-anchor:start;"
     transform="matrix(1.000000,-0.000000,0.000000,1.000000,787.516051,125.110487)"
     x="0.000000"
     y="0.000000"
     id="text358"><tspan
       sodipodi:role="line"
       x="0.000000"
       y="0.000000"
       id="tspan356"><tspan
         dx="0.000000"
         dy="0.000000"
         style="fill:#333F50;font-size:24.000000px;font-style:normal;font-variant:normal;font-weight:400;font-stretch:Normal;font-family:Cambria Math;"
         id="tspan354">ሿ</tspan></tspan></text>
  <path
     style="fill:#a5a5a5;fill-rule:nonzero;fill-opacity:1;stroke:#a5a5a5;stroke-width:0.020016266px;stroke-linecap:butt;stroke-linejoin:round;stroke-miterlimit:4;stroke-dasharray:none;stroke-opacity:1;"
     d="  M 546.18611,282.79967   M 546.18611,282.79967   M 439.14323,71.110276   M 439.14323,71.110276   M 453.71507,76.07431   M 453.71507,76.07431   M 464.76405,71.110276   M 464.76405,71.110276   M 473.09081,71.110276   M 473.09081,71.110276   M 483.33914,71.110276   M 483.33914,71.110276   M 492.30643,71.110276   M 492.30643,71.110276   M 505.59723,71.110276   M 505.59723,71.110276   M 721.06205,125.11049   M 721.06205,125.11049   M 735.63389,130.07453   M 735.63389,130.07453   M 746.68287,125.11049   M 746.68287,125.11049   M 755.00964,125.11049   M 755.00964,125.11049   M 765.25796,125.11049   M 765.25796,125.11049   M 774.22525,125.11049   M 774.22525,125.11049   M 787.51605,125.11049   M 787.51605,125.11049   M 110.44975,287.69379   L 112.99182,290.57613   L 112.27123,291.21665   L 109.72917,288.31429   L 110.44975,287.69379  z    M 114.89337,292.73789   L 117.43543,295.62023   L 116.71485,296.26075   L 114.17278,293.37841   L 114.89337,292.73789  z    M 119.33698,297.78199   L 121.87904,300.68434   L 121.15846,301.30485   L 118.61639,298.42251   L 119.33698,297.78199  z    M 123.78059,302.8461   L 126.32265,305.72844   L 125.60207,306.36896   L 123.06,303.46661   L 123.78059,302.8461  z    M 128.2242,307.8902   L 130.76626,310.77254   L 130.02566,311.41306   L 127.50361,308.53072   L 128.2242,307.8902  z    M 132.66781,312.9343   L 135.18986,315.83666   L 134.46927,316.45716   L 131.94722,313.57482   L 132.66781,312.9343  z    M 137.0914,317.99841   L 139.63347,320.88076   L 138.91288,321.52128   L 136.37082,318.63893   L 137.0914,317.99841  z    M 141.53502,323.04251   L 144.07708,325.92486   L 143.3565,326.56538   L 140.81443,323.68303   L 141.53502,323.04251  z    M 145.97863,328.10663   L 148.52069,330.98897   L 147.80011,331.60947   L 145.25804,328.72713   L 145.97863,328.10663  z    M 150.42224,333.15073   L 152.9643,336.03307   L 152.24372,336.67359   L 149.70165,333.79125   L 150.42224,333.15073  z    M 154.86585,338.19483   L 157.3879,341.09718   L 156.66731,341.71769   L 154.14526,338.83535   L 154.86585,338.19483  z    M 159.30946,343.25894   L 161.83151,346.14128   L 161.11092,346.7818   L 158.56886,343.87945   L 159.30946,343.25894  z    M 163.73305,348.30304   L 166.27512,351.18538   L 165.55453,351.8259   L 163.01247,348.94356   L 163.73305,348.30304  z    M 168.17666,353.34714   L 170.71873,356.2495   L 169.99815,356.87   L 167.45608,353.98766   L 168.17666,353.34714  z    M 172.62028,358.41125   L 175.16234,361.2936   L 174.44176,361.93412   L 171.89969,359.05178   L 172.62028,358.41125  z    M 177.06389,363.45535   L 179.60595,366.3377   L 178.86535,366.97822   L 176.3433,364.09587   L 177.06389,363.45535  z    M 181.5075,368.51947   L 184.02955,371.40181   L 183.30896,372.02232   L 180.78691,369.13997   L 181.5075,368.51947  z    M 185.93109,373.56357   L 188.47316,376.44591   L 187.75257,377.08643   L 185.21051,374.20409   L 185.93109,373.56357  z    M 190.3747,378.60767   L 192.91677,381.51003   L 192.19618,382.13053   L 189.65412,379.24819   L 190.3747,378.60767  z    M 194.81831,383.67178   L 197.36038,386.55412   L 196.63979,387.19464   L 194.09773,384.29229   L 194.81831,383.67178  z    M 199.26193,388.71588   L 201.80399,391.59822   L 201.08341,392.23874   L 198.54134,389.3564   L 199.26193,388.71588  z    M 203.70554,393.75998   L 206.22759,396.66234   L 205.507,397.28284   L 202.98495,394.4005   L 203.70554,393.75998  z    M 208.14915,398.8241   L 210.6712,401.70644   L 209.95061,402.34696   L 207.40855,399.4446   L 208.14915,398.8241  z    M 212.57274,403.86819   L 215.11481,406.75054   L 214.39422,407.39106   L 211.85216,404.50871   L 212.57274,403.86819  z    M 217.01635,408.93231   L 219.55842,411.81465   L 218.83783,412.43516   L 216.29577,409.55281   L 217.01635,408.93231  z    M 221.45996,413.97641   L 224.00203,416.85875   L 223.28144,417.49927   L 220.73938,414.61693   L 221.45996,413.97641  z    M 225.90358,419.02051   L 228.44564,421.92287   L 227.72506,422.54337   L 225.18299,419.66103   L 225.90358,419.02051  z    M 230.34719,424.08462   L 232.86924,426.96697   L 232.14865,427.60749   L 229.6266,424.70513   L 230.34719,424.08462  z    M 234.77078,429.12872   L 237.31285,432.01106   L 236.59226,432.65158   L 234.0502,429.76924   L 234.77078,429.12872  z    M 239.21439,434.17282   L 241.75646,437.07518   L 241.03587,437.69568   L 238.49381,434.81334   L 239.21439,434.17282  z    M 243.658,439.23694   L 246.20007,442.11928   L 245.47948,442.7598   L 242.93742,439.85744   L 243.658,439.23694  z    M 248.10161,444.28103   L 250.64368,447.16338   L 249.92309,447.8039   L 247.38103,444.92156   L 248.10161,444.28103  z    M 252.54523,449.34515   L 255.06727,452.22749   L 254.34669,452.848   L 251.82464,449.96565   L 252.54523,449.34515  z    M 256.98884,454.38925   L 259.51089,457.27159   L 258.7903,457.91211   L 256.24823,455.02977   L 256.98884,454.38925  z    M 261.41243,459.43335   L 263.9545,462.31569   L 263.23391,462.95621   L 260.69185,460.07387   L 261.41243,459.43335  z    M 265.85604,464.49746   L 268.39811,467.37981   L 267.67752,468.02033   L 265.13546,465.11797   L 265.85604,464.49746  z    M 270.29965,469.54156   L 272.84172,472.4239   L 272.12113,473.06443   L 269.57907,470.18208   L 270.29965,469.54156  z    M 274.74326,474.58566   L 277.28533,477.48802   L 276.56474,478.10852   L 274.02268,475.22618   L 274.74326,474.58566  z    M 279.18687,479.64978   L 281.70892,482.53212   L 280.98834,483.17264   L 278.46629,480.27028   L 279.18687,479.64978  z    M 283.61047,484.69388   L 286.15254,487.57622   L 285.43195,488.21674   L 282.88988,485.3344   L 283.61047,484.69388  z    M 288.05408,489.75799   L 290.59615,492.64033   L 289.87556,493.26084   L 287.3335,490.37849   L 288.05408,489.75799  z    M 292.49769,494.80209   L 295.03976,497.68443   L 294.31917,498.32495   L 291.77711,495.44261   L 292.49769,494.80209  z    M 296.9413,499.84619   L 299.48337,502.72853   L 298.76278,503.36905   L 296.22072,500.48671   L 296.9413,499.84619  z    M 301.38491,504.9103   L 303.90696,507.79265   L 303.18638,508.43317   L 300.66433,505.53081   L 301.38491,504.9103  z    M 305.82852,509.9544   L 308.35057,512.83675   L 307.62999,513.47727   L 305.10794,510.59492   L 305.82852,509.9544  z    M 310.25212,514.9985   L 312.79419,517.90086   L 312.0736,518.52136   L 309.53153,515.63902   L 310.25212,514.9985  z    M 314.69573,520.06262   L 317.2378,522.94496   L 316.51721,523.58548   L 313.97514,520.68312   L 314.69573,520.06262  z    M 319.13934,525.10672   L 321.68141,527.98906   L 320.96082,528.62958   L 318.41876,525.74724   L 319.13934,525.10672  z    M 323.58295,530.15082   L 326.12502,533.05317   L 325.40443,533.67368   L 322.86237,530.79134   L 323.58295,530.15082  z    M 328.02656,535.21493   L 330.54861,538.09727   L 329.82803,538.73779   L 327.30598,535.85545   L 328.02656,535.21493  z    M 332.45016,540.25903   L 334.99222,543.14137   L 334.27164,543.78189   L 331.72957,540.89955   L 332.45016,540.25903  z    M 336.89377,545.32314   L 339.43583,548.20549   L 338.71525,548.82599   L 336.17318,545.94365   L 336.89377,545.32314  z    M 341.33738,550.36724   L 343.87945,553.24959   L 343.15886,553.89011   L 340.61679,551.00776   L 341.33738,550.36724  z    M 345.78099,555.41134   L 348.32306,558.3137   L 347.60247,558.93421   L 345.06041,556.05186   L 345.78099,555.41134  z    M 350.2246,560.47546   L 352.76667,563.3578   L 352.02607,563.99832   L 349.50402,561.09596   L 350.2246,560.47546  z    M 354.66821,565.51956   L 357.19026,568.4019   L 356.46968,569.04242   L 353.94763,566.16008   L 354.66821,565.51956  z    M 359.09181,570.56366   L 361.63387,573.46601   L 360.91329,574.08652   L 358.37122,571.20418   L 359.09181,570.56366  z    M 363.53542,575.62777   L 366.07748,578.51011   L 365.3569,579.15063   L 362.81483,576.26829   L 363.53542,575.62777  z    M 367.97903,580.67187   L 370.5211,583.55421   L 369.80051,584.19473   L 367.25844,581.31239   L 367.97903,580.67187  z    M 372.42264,585.73599   L 374.96471,588.61833   L 374.24412,589.23883   L 371.70206,586.35649   L 372.42264,585.73599  z    M 376.86625,590.78008   L 377.44672,591.44062   L 376.72614,592.08114   L 376.14567,591.4206   L 376.86625,590.78008  z   "
     id="path360" />
  <path
     style="fill:#a5a5a5;fill-rule:nonzero;fill-opacity:1;stroke:#a5a5a5;stroke-width:0.020016266px;stroke-linecap:butt;stroke-linejoin:round;stroke-miterlimit:4;stroke-dasharray:none;stroke-opacity:1;"
     d="  M 132.62778,245.17924   L 134.40922,248.582   L 133.56854,249.04238   L 131.76708,245.63961   L 132.62778,245.17924  z    M 135.75031,251.14409   L 137.53176,254.54685   L 136.69108,254.98721   L 134.90963,251.58444   L 135.75031,251.14409  z    M 138.87285,257.08892   L 140.67432,260.49168   L 139.81362,260.93204   L 138.03217,257.54929   L 138.87285,257.08892  z    M 142.01541,263.05376   L 143.79685,266.45653   L 142.93615,266.89689   L 141.15471,263.49412   L 142.01541,263.05376  z    M 145.13794,268.9986   L 146.91939,272.40136   L 146.07871,272.84172   L 144.27724,269.43895   L 145.13794,268.9986  z    M 148.26048,274.94343   L 150.04193,278.34619   L 149.20125,278.80657   L 147.4198,275.4038   L 148.26048,274.94343  z    M 151.38302,280.90827   L 153.18448,284.31104   L 152.32378,284.7514   L 150.54233,281.34863   L 151.38302,280.90827  z    M 154.52557,286.8531   L 156.30702,290.25587   L 155.46634,290.71624   L 153.66487,287.31348   L 154.52557,286.8531  z    M 157.64811,292.81795   L 159.42956,296.22072   L 158.58887,296.66107   L 156.80743,293.25831   L 157.64811,292.81795  z    M 160.77065,298.76278   L 162.57211,302.16555   L 161.71141,302.62592   L 159.92996,299.22316   L 160.77065,298.76278  z    M 163.9132,304.72763   L 165.69465,308.1304   L 164.83395,308.57075   L 163.0525,305.16799   L 163.9132,304.72763  z    M 167.03574,310.67246   L 168.81719,314.07523   L 167.9765,314.51558   L 166.17504,311.11282   L 167.03574,310.67246  z    M 170.15828,316.63731   L 171.95974,320.04007   L 171.09904,320.48043   L 169.31759,317.07767   L 170.15828,316.63731  z    M 173.28081,322.58214   L 175.08228,325.9849   L 174.22158,326.42526   L 172.44013,323.0225   L 173.28081,322.58214  z    M 176.42337,328.52697   L 178.20481,331.92974   L 177.36413,332.39011   L 175.56267,328.98734   L 176.42337,328.52697  z    M 179.5459,334.49182   L 181.32735,337.89458   L 180.48667,338.33494   L 178.70522,334.93218   L 179.5459,334.49182  z    M 182.66844,340.43665   L 184.46991,343.83941   L 183.60921,344.29979   L 181.82776,340.89702   L 182.66844,340.43665  z    M 185.811,346.4015   L 187.59244,349.80426   L 186.73174,350.24462   L 184.9503,346.84185   L 185.811,346.4015  z    M 188.93353,352.34633   L 190.71498,355.74909   L 189.8743,356.18945   L 188.07283,352.8067   L 188.93353,352.34633  z    M 192.05607,358.31117   L 193.85753,361.71394   L 192.99683,362.1543   L 191.21539,358.75153   L 192.05607,358.31117  z    M 195.19862,364.256   L 196.98007,367.65877   L 196.11937,368.09913   L 194.33792,364.69636   L 195.19862,364.256  z    M 198.32116,370.20084   L 200.10261,373.6036   L 199.26193,374.06397   L 197.46046,370.66121   L 198.32116,370.20084  z    M 201.4437,376.16568   L 203.22515,379.56845   L 202.38446,380.00881   L 200.60302,376.60604   L 201.4437,376.16568  z    M 204.56624,382.11051   L 206.3677,385.51328   L 205.507,385.97365   L 203.72555,382.57089   L 204.56624,382.11051  z    M 207.70879,388.07536   L 209.49024,391.47813   L 208.62954,391.91848   L 206.84809,388.51572   L 207.70879,388.07536  z    M 210.83133,394.02019   L 212.61277,397.42296   L 211.77209,397.88333   L 209.97063,394.48057   L 210.83133,394.02019  z    M 213.95386,399.98504   L 215.75533,403.3878   L 214.89463,403.82816   L 213.11318,400.4254   L 213.95386,399.98504  z    M 217.09642,405.92987   L 218.87787,409.33263   L 218.01717,409.77299   L 216.23572,406.37023   L 217.09642,405.92987  z    M 220.21896,411.89472   L 222.0004,415.29748   L 221.15972,415.73784   L 219.35826,412.33507   L 220.21896,411.89472  z    M 223.34149,417.83955   L 225.12294,421.24231   L 224.28226,421.68267   L 222.50081,418.27991   L 223.34149,417.83955  z    M 226.46403,423.78438   L 228.26549,427.18714   L 227.4048,427.64752   L 225.62335,424.24475   L 226.46403,423.78438  z    M 229.60658,429.74923   L 231.38803,433.15199   L 230.54735,433.59235   L 228.74589,430.18958   L 229.60658,429.74923  z    M 232.72912,435.69406   L 234.51057,439.09682   L 233.66989,439.5572   L 231.88844,436.15443   L 232.72912,435.69406  z    M 235.85166,441.6589   L 237.65312,445.06167   L 236.79242,445.50203   L 235.01098,442.09926   L 235.85166,441.6589  z    M 238.99421,447.60374   L 240.77566,451.0065   L 239.91496,451.44686   L 238.13351,448.06411   L 238.99421,447.60374  z    M 242.11675,453.56858   L 243.8982,456.97135   L 243.05752,457.41171   L 241.25605,454.00894   L 242.11675,453.56858  z    M 245.23929,459.51341   L 247.02074,462.91618   L 246.18005,463.35654   L 244.3986,459.95377   L 245.23929,459.51341  z    M 248.36183,465.45824   L 250.16329,468.86101   L 249.30259,469.32138   L 247.52114,465.91862   L 248.36183,465.45824  z    M 251.50438,471.42309   L 253.28583,474.82586   L 252.44514,475.26621   L 250.64368,471.86345   L 251.50438,471.42309  z    M 254.62692,477.36792   L 256.40836,480.77069   L 255.56768,481.23106   L 253.78623,477.8283   L 254.62692,477.36792  z    M 257.74945,483.33277   L 259.55092,486.73553   L 258.69022,487.17589   L 256.90877,483.77313   L 257.74945,483.33277  z    M 260.89201,489.2776   L 262.67346,492.68037   L 261.81276,493.14074   L 260.03131,489.73797   L 260.89201,489.2776  z    M 264.01455,495.24245   L 265.79599,498.64521   L 264.95531,499.08557   L 263.15385,495.68281   L 264.01455,495.24245  z    M 267.13708,501.18728   L 268.93855,504.59004   L 268.07785,505.0304   L 266.2964,501.62764   L 267.13708,501.18728  z    M 270.25962,507.15213   L 272.06108,510.55489   L 271.20038,510.99525   L 269.41894,507.59248   L 270.25962,507.15213  z    M 273.40217,513.09696   L 275.18362,516.49972   L 274.34294,516.94008   L 272.54147,513.53731   L 273.40217,513.09696  z    M 276.52471,519.04179   L 278.30616,522.44455   L 277.46548,522.90493   L 275.68403,519.50216   L 276.52471,519.04179  z    M 279.64725,525.00663   L 281.44871,528.4094   L 280.58801,528.84976   L 278.80657,525.44699   L 279.64725,525.00663  z    M 282.7898,530.95147   L 284.57125,534.35423   L 283.71055,534.8146   L 281.9291,531.41184   L 282.7898,530.95147  z    M 285.91234,536.91631   L 287.69379,540.31908   L 286.8531,540.75944   L 285.05164,537.35667   L 285.91234,536.91631  z    M 289.03488,542.86114   L 290.83634,546.26391   L 289.97564,546.70427   L 288.19419,543.32152   L 289.03488,542.86114  z    M 292.17743,548.82599   L 293.95888,552.22876   L 293.09818,552.66911   L 291.31673,549.26635   L 292.17743,548.82599  z    M 295.29997,554.77082   L 297.08142,558.17359   L 296.24073,558.61394   L 294.43927,555.21118   L 295.29997,554.77082  z    M 298.42251,560.71565   L 300.20395,564.11842   L 299.36327,564.57879   L 297.58182,561.17603   L 298.42251,560.71565  z    M 301.54504,566.6805   L 303.34651,570.08327   L 302.48581,570.52362   L 300.70436,567.12086   L 301.54504,566.6805  z    M 304.6876,572.62533   L 306.46905,576.0281   L 305.62836,576.48847   L 303.8269,573.08571   L 304.6876,572.62533  z    M 307.81013,578.59018   L 309.59158,581.99294   L 308.7509,582.4333   L 306.94944,579.03054   L 307.81013,578.59018  z    M 310.93267,584.53501   L 312.73414,587.93777   L 311.87344,588.39815   L 310.09199,584.99538   L 310.93267,584.53501  z    M 314.07523,590.49986   L 314.63568,591.58073   L 313.77498,592.02109   L 313.21453,590.94021   L 314.07523,590.49986  z   "
     id="path362" />
  <path
     style="fill:#ed7d31;fill-rule:nonzero;fill-opacity:1;stroke:#ed7d31;stroke-width:0.020016266px;stroke-linecap:butt;stroke-linejoin:round;stroke-miterlimit:4;stroke-dasharray:none;stroke-opacity:1;"
     d="  M 502.92869,246.92065   L 500.76694,243.73807   L 501.54757,243.19763   L 503.72934,246.38022   L 502.92869,246.92065  z    M 499.14562,241.35613   L 496.96385,238.19356   L 497.7645,237.65312   L 499.92625,240.81569   L 499.14562,241.35613  z    M 495.34253,235.81163   L 493.18077,232.62904   L 493.96141,232.0886   L 496.14318,235.27119   L 495.34253,235.81163  z    M 491.55945,230.26712   L 489.37768,227.08454   L 490.17833,226.5441   L 492.34009,229.70667   L 491.55945,230.26712  z    M 487.75636,224.7026   L 485.59461,221.54003   L 486.37524,220.97957   L 488.55701,224.16216   L 487.75636,224.7026  z    M 483.97329,219.15809   L 481.79152,215.97551   L 482.59217,215.43507   L 484.75392,218.61765   L 483.97329,219.15809  z    M 480.1702,213.59357   L 478.00844,210.431   L 478.78908,209.89056   L 480.97085,213.05313   L 480.1702,213.59357  z    M 476.36711,208.04907   L 474.20535,204.86648   L 475.006,204.32604   L 477.16776,207.50863   L 476.36711,208.04907  z    M 472.58403,202.48454   L 470.42228,199.32197   L 471.20291,198.78154   L 473.38469,201.94411   L 472.58403,202.48454  z    M 468.78094,196.94004   L 466.61919,193.75745   L 467.41984,193.21701   L 469.58159,196.3996   L 468.78094,196.94004  z    M 464.99787,191.37552   L 462.83611,188.21295   L 463.61675,187.67251   L 465.79852,190.83508   L 464.99787,191.37552  z    M 461.19478,185.83101   L 459.03302,182.64843   L 459.83367,182.10799   L 461.99543,185.29057   L 461.19478,185.83101  z    M 457.41171,180.28651   L 455.24995,177.10392   L 456.03058,176.56348   L 458.21236,179.72605   L 457.41171,180.28651  z    M 453.60861,174.72198   L 451.44686,171.55941   L 452.24751,170.99896   L 454.40927,174.18154   L 453.60861,174.72198  z    M 449.82554,169.17748   L 447.66378,165.99489   L 448.44442,165.45445   L 450.60617,168.63704   L 449.82554,169.17748  z    M 446.02245,163.61296   L 443.90073,160.49042   L 444.68136,159.94998   L 446.8231,163.07252   L 446.02245,163.61296  z   "
     id="path364" />
  <path
     style="fill:#548235;fill-rule:nonzero;fill-opacity:1;stroke:#548235;stroke-width:0.040032532px;stroke-linecap:butt;stroke-linejoin:round;stroke-miterlimit:4;stroke-dasharray:none;stroke-opacity:1;"
     d="  M 501.56759,250.36345   L 517.50054,231.98852   L 515.21868,229.98689   L 499.28573,248.40186   z  M 523.50541,225.10292   L 525.46701,222.78104   L 523.18515,220.77941   L 521.18353,223.1013   z  M 531.47189,215.89544   L 533.43348,213.57356   L 531.15163,211.61196   L 529.15,213.89382   z  M 539.43836,206.68796   L 555.37131,188.31303   L 553.04942,186.3114   L 537.11648,204.68633   z  M 561.33616,181.3874   L 563.33778,179.10555   L 561.0159,177.10392   L 559.0543,179.38577   z  M 569.30263,172.17992   L 571.30426,169.89806   L 569.0224,167.89644   L 567.02078,170.21832   z  M 577.2691,163.01247   L 593.20205,144.5975   L 590.9202,142.59588   L 574.98725,161.01084   z  M 599.20693,137.71191   L 601.16853,135.39002   L 598.88667,133.42843   L 596.88505,135.71028   z  M 607.17341,128.50443   L 609.135,126.22257   L 606.85315,124.22095   L 604.85152,126.5028   z  M 615.13988,119.29694   L 631.07283,100.92201   L 628.75094,98.920385   L 612.81799,117.33535   z  M 630.51237,109.36888   L 632.95436,96.398336   L 620.50424,100.68182   C 619.70359,100.92201 619.26323,101.80273 619.54346,102.60338   C 619.82369,103.40403 620.66437,103.80435 621.46502,103.56416   L 631.47315,100.12136   L 629.47153,98.399962   L 627.54996,108.80842   C 627.38983,109.60907 627.91026,110.40972 628.75094,110.56985   C 629.55159,110.72998 630.35224,110.16953 630.51237,109.36888   z "
     id="path366" />
</svg>
