<svg version="1.1" xmlns="http://www.w3.org/2000/svg" xmlns:xlink="http://www.w3.org/1999/xlink" width="1148" height="789"><defs><clipPath id="pHLwrvwDHllE"><path fill="none" stroke="none" d=" M 0 0 L 1148 0 L 1148 789 L 0 789 L 0 0 Z"/></clipPath></defs><g transform="scale(1,1)" clip-path="url(#pHLwrvwDHllE)"><g><rect fill="rgb(255,255,255)" stroke="none" x="0" y="0" width="1148" height="789" fill-opacity="1"/><path fill="none" stroke="rgb(192,192,192)" paint-order="fill stroke markers" d=" M 21.5 0.5 L 21.5 789.5 M 21.5 0.5 L 21.5 789.5 M 113.5 0.5 L 113.5 789.5 M 205.5 0.5 L 205.5 789.5 M 389.5 0.5 L 389.5 789.5 M 481.5 0.5 L 481.5 789.5 M 573.5 0.5 L 573.5 789.5 M 665.5 0.5 L 665.5 789.5 M 758.5 0.5 L 758.5 789.5 M 850.5 0.5 L 850.5 789.5 M 942.5 0.5 L 942.5 789.5 M 1034.5 0.5 L 1034.5 789.5 M 1126.5 0.5 L 1126.5 789.5" stroke-opacity="1" stroke-linecap="round" stroke-linejoin="round" stroke-miterlimit="10"/><path fill="none" stroke="rgb(192,192,192)" paint-order="fill stroke markers" d=" M 2.5 0.5 L 2.5 789.5 M 39.5 0.5 L 39.5 789.5 M 58.5 0.5 L 58.5 789.5 M 76.5 0.5 L 76.5 789.5 M 95.5 0.5 L 95.5 789.5 M 131.5 0.5 L 131.5 789.5 M 150.5 0.5 L 150.5 789.5 M 168.5 0.5 L 168.5 789.5 M 187.5 0.5 L 187.5 789.5 M 223.5 0.5 L 223.5 789.5 M 242.5 0.5 L 242.5 789.5 M 260.5 0.5 L 260.5 789.5 M 279.5 0.5 L 279.5 789.5 M 316.5 0.5 L 316.5 789.5 M 334.5 0.5 L 334.5 789.5 M 352.5 0.5 L 352.5 789.5 M 371.5 0.5 L 371.5 789.5 M 408.5 0.5 L 408.5 789.5 M 426.5 0.5 L 426.5 789.5 M 444.5 0.5 L 444.5 789.5 M 463.5 0.5 L 463.5 789.5 M 500.5 0.5 L 500.5 789.5 M 518.5 0.5 L 518.5 789.5 M 537.5 0.5 L 537.5 789.5 M 555.5 0.5 L 555.5 789.5 M 592.5 0.5 L 592.5 789.5 M 610.5 0.5 L 610.5 789.5 M 629.5 0.5 L 629.5 789.5 M 647.5 0.5 L 647.5 789.5 M 684.5 0.5 L 684.5 789.5 M 702.5 0.5 L 702.5 789.5 M 721.5 0.5 L 721.5 789.5 M 739.5 0.5 L 739.5 789.5 M 776.5 0.5 L 776.5 789.5 M 794.5 0.5 L 794.5 789.5 M 813.5 0.5 L 813.5 789.5 M 831.5 0.5 L 831.5 789.5 M 868.5 0.5 L 868.5 789.5 M 886.5 0.5 L 886.5 789.5 M 905.5 0.5 L 905.5 789.5 M 923.5 0.5 L 923.5 789.5 M 960.5 0.5 L 960.5 789.5 M 979.5 0.5 L 979.5 789.5 M 997.5 0.5 L 997.5 789.5 M 1015.5 0.5 L 1015.5 789.5 M 1052.5 0.5 L 1052.5 789.5 M 1071.5 0.5 L 1071.5 789.5 M 1089.5 0.5 L 1089.5 789.5 M 1107.5 0.5 L 1107.5 789.5 M 1144.5 0.5 L 1144.5 789.5" stroke-opacity="0.23529411764705882" stroke-linecap="round" stroke-linejoin="round" stroke-miterlimit="10"/><path fill="none" stroke="rgb(192,192,192)" paint-order="fill stroke markers" d=" M 0.5 71.5 L 1148.5 71.5 M 0.5 71.5 L 1148.5 71.5 M 0.5 163.5 L 1148.5 163.5 M 0.5 255.5 L 1148.5 255.5 M 0.5 347.5 L 1148.5 347.5 M 0.5 439.5 L 1148.5 439.5 M 0.5 531.5 L 1148.5 531.5 M 0.5 715.5 L 1148.5 715.5" stroke-opacity="1" stroke-linecap="round" stroke-linejoin="round" stroke-miterlimit="10"/><path fill="none" stroke="rgb(192,192,192)" paint-order="fill stroke markers" d=" M 0.5 15.5 L 1148.5 15.5 M 0.5 15.5 L 1148.5 15.5 M 0.5 34.5 L 1148.5 34.5 M 0.5 52.5 L 1148.5 52.5 M 0.5 89.5 L 1148.5 89.5 M 0.5 107.5 L 1148.5 107.5 M 0.5 126.5 L 1148.5 126.5 M 0.5 144.5 L 1148.5 144.5 M 0.5 181.5 L 1148.5 181.5 M 0.5 199.5 L 1148.5 199.5 M 0.5 218.5 L 1148.5 218.5 M 0.5 236.5 L 1148.5 236.5 M 0.5 273.5 L 1148.5 273.5 M 0.5 292.5 L 1148.5 292.5 M 0.5 310.5 L 1148.5 310.5 M 0.5 328.5 L 1148.5 328.5 M 0.5 365.5 L 1148.5 365.5 M 0.5 384.5 L 1148.5 384.5 M 0.5 402.5 L 1148.5 402.5 M 0.5 420.5 L 1148.5 420.5 M 0.5 457.5 L 1148.5 457.5 M 0.5 476.5 L 1148.5 476.5 M 0.5 494.5 L 1148.5 494.5 M 0.5 513.5 L 1148.5 513.5 M 0.5 549.5 L 1148.5 549.5 M 0.5 568.5 L 1148.5 568.5 M 0.5 586.5 L 1148.5 586.5 M 0.5 605.5 L 1148.5 605.5 M 0.5 641.5 L 1148.5 641.5 M 0.5 660.5 L 1148.5 660.5 M 0.5 678.5 L 1148.5 678.5 M 0.5 697.5 L 1148.5 697.5 M 0.5 734.5 L 1148.5 734.5 M 0.5 752.5 L 1148.5 752.5 M 0.5 770.5 L 1148.5 770.5" stroke-opacity="0.23529411764705882" stroke-linecap="round" stroke-linejoin="round" stroke-miterlimit="10"/><path fill="none" stroke="rgb(0,0,0)" paint-order="fill stroke markers" d=" M 297.5 2.5 L 297.5 789.5" stroke-opacity="1" stroke-miterlimit="10"/><path fill="none" stroke="rgb(0,0,0)" paint-order="fill stroke markers" d=" M 297.5 1.5 L 290.5 8.5" stroke-opacity="1" stroke-miterlimit="10"/><path fill="none" stroke="rgb(0,0,0)" paint-order="fill stroke markers" d=" M 297.5 1.5 L 304.5 8.5" stroke-opacity="1" stroke-miterlimit="10"/><path fill="none" stroke="rgb(0,0,0)" paint-order="fill stroke markers" d=" M 0.5 623.5 L 1146.5 623.5" stroke-opacity="1" stroke-miterlimit="10"/><path fill="none" stroke="rgb(0,0,0)" paint-order="fill stroke markers" d=" M 1147.5 623.5 L 1140.5 616.5" stroke-opacity="1" stroke-miterlimit="10"/><path fill="none" stroke="rgb(0,0,0)" paint-order="fill stroke markers" d=" M 1147.5 623.5 L 1140.5 630.5" stroke-opacity="1" stroke-miterlimit="10"/><text fill="rgb(0,0,0)" stroke="none" font-family="geogebra-sans-serif, sans-serif" font-size="21px" font-style="normal" font-weight="normal" text-decoration="normal" x="1" y="648" text-anchor="start" dominant-baseline="alphabetic" fill-opacity="1">–0.6</text><text fill="none" stroke="rgb(255,255,255)" font-family="geogebra-sans-serif, sans-serif" font-size="21px" font-style="normal" font-weight="normal" text-decoration="normal" x="1" y="648" text-anchor="start" dominant-baseline="alphabetic" stroke-opacity="1" stroke-linejoin="bevel" stroke-miterlimit="10" stroke-width="3">–0.6</text><text fill="rgb(0,0,0)" stroke="none" font-family="geogebra-sans-serif, sans-serif" font-size="21px" font-style="normal" font-weight="normal" text-decoration="normal" x="1" y="648" text-anchor="start" dominant-baseline="alphabetic" fill-opacity="1">–0.6</text><text fill="rgb(0,0,0)" stroke="none" font-family="geogebra-sans-serif, sans-serif" font-size="21px" font-style="normal" font-weight="normal" text-decoration="normal" x="93" y="648" text-anchor="start" dominant-baseline="alphabetic" fill-opacity="1">–0.4</text><text fill="none" stroke="rgb(255,255,255)" font-family="geogebra-sans-serif, sans-serif" font-size="21px" font-style="normal" font-weight="normal" text-decoration="normal" x="93" y="648" text-anchor="start" dominant-baseline="alphabetic" stroke-opacity="1" stroke-linejoin="bevel" stroke-miterlimit="10" stroke-width="3">–0.4</text><text fill="rgb(0,0,0)" stroke="none" font-family="geogebra-sans-serif, sans-serif" font-size="21px" font-style="normal" font-weight="normal" text-decoration="normal" x="93" y="648" text-anchor="start" dominant-baseline="alphabetic" fill-opacity="1">–0.4</text><text fill="rgb(0,0,0)" stroke="none" font-family="geogebra-sans-serif, sans-serif" font-size="21px" font-style="normal" font-weight="normal" text-decoration="normal" x="185" y="648" text-anchor="start" dominant-baseline="alphabetic" fill-opacity="1">–0.2</text><text fill="none" stroke="rgb(255,255,255)" font-family="geogebra-sans-serif, sans-serif" font-size="21px" font-style="normal" font-weight="normal" text-decoration="normal" x="185" y="648" text-anchor="start" dominant-baseline="alphabetic" stroke-opacity="1" stroke-linejoin="bevel" stroke-miterlimit="10" stroke-width="3">–0.2</text><text fill="rgb(0,0,0)" stroke="none" font-family="geogebra-sans-serif, sans-serif" font-size="21px" font-style="normal" font-weight="normal" text-decoration="normal" x="185" y="648" text-anchor="start" dominant-baseline="alphabetic" fill-opacity="1">–0.2</text><text fill="rgb(0,0,0)" stroke="none" font-family="geogebra-sans-serif, sans-serif" font-size="21px" font-style="normal" font-weight="normal" text-decoration="normal" x="374" y="648" text-anchor="start" dominant-baseline="alphabetic" fill-opacity="1">0.2</text><text fill="none" stroke="rgb(255,255,255)" font-family="geogebra-sans-serif, sans-serif" font-size="21px" font-style="normal" font-weight="normal" text-decoration="normal" x="374" y="648" text-anchor="start" dominant-baseline="alphabetic" stroke-opacity="1" stroke-linejoin="bevel" stroke-miterlimit="10" stroke-width="3">0.2</text><text fill="rgb(0,0,0)" stroke="none" font-family="geogebra-sans-serif, sans-serif" font-size="21px" font-style="normal" font-weight="normal" text-decoration="normal" x="374" y="648" text-anchor="start" dominant-baseline="alphabetic" fill-opacity="1">0.2</text><text fill="rgb(0,0,0)" stroke="none" font-family="geogebra-sans-serif, sans-serif" font-size="21px" font-style="normal" font-weight="normal" text-decoration="normal" x="467" y="648" text-anchor="start" dominant-baseline="alphabetic" fill-opacity="1">0.4</text><text fill="none" stroke="rgb(255,255,255)" font-family="geogebra-sans-serif, sans-serif" font-size="21px" font-style="normal" font-weight="normal" text-decoration="normal" x="467" y="648" text-anchor="start" dominant-baseline="alphabetic" stroke-opacity="1" stroke-linejoin="bevel" stroke-miterlimit="10" stroke-width="3">0.4</text><text fill="rgb(0,0,0)" stroke="none" font-family="geogebra-sans-serif, sans-serif" font-size="21px" font-style="normal" font-weight="normal" text-decoration="normal" x="467" y="648" text-anchor="start" dominant-baseline="alphabetic" fill-opacity="1">0.4</text><text fill="rgb(0,0,0)" stroke="none" font-family="geogebra-sans-serif, sans-serif" font-size="21px" font-style="normal" font-weight="normal" text-decoration="normal" x="559" y="648" text-anchor="start" dominant-baseline="alphabetic" fill-opacity="1">0.6</text><text fill="none" stroke="rgb(255,255,255)" font-family="geogebra-sans-serif, sans-serif" font-size="21px" font-style="normal" font-weight="normal" text-decoration="normal" x="559" y="648" text-anchor="start" dominant-baseline="alphabetic" stroke-opacity="1" stroke-linejoin="bevel" stroke-miterlimit="10" stroke-width="3">0.6</text><text fill="rgb(0,0,0)" stroke="none" font-family="geogebra-sans-serif, sans-serif" font-size="21px" font-style="normal" font-weight="normal" text-decoration="normal" x="559" y="648" text-anchor="start" dominant-baseline="alphabetic" fill-opacity="1">0.6</text><text fill="rgb(0,0,0)" stroke="none" font-family="geogebra-sans-serif, sans-serif" font-size="21px" font-style="normal" font-weight="normal" text-decoration="normal" x="651" y="648" text-anchor="start" dominant-baseline="alphabetic" fill-opacity="1">0.8</text><text fill="none" stroke="rgb(255,255,255)" font-family="geogebra-sans-serif, sans-serif" font-size="21px" font-style="normal" font-weight="normal" text-decoration="normal" x="651" y="648" text-anchor="start" dominant-baseline="alphabetic" stroke-opacity="1" stroke-linejoin="bevel" stroke-miterlimit="10" stroke-width="3">0.8</text><text fill="rgb(0,0,0)" stroke="none" font-family="geogebra-sans-serif, sans-serif" font-size="21px" font-style="normal" font-weight="normal" text-decoration="normal" x="651" y="648" text-anchor="start" dominant-baseline="alphabetic" fill-opacity="1">0.8</text><text fill="rgb(0,0,0)" stroke="none" font-family="geogebra-sans-serif, sans-serif" font-size="21px" font-style="normal" font-weight="normal" text-decoration="normal" x="753" y="648" text-anchor="start" dominant-baseline="alphabetic" fill-opacity="1">1</text><text fill="none" stroke="rgb(255,255,255)" font-family="geogebra-sans-serif, sans-serif" font-size="21px" font-style="normal" font-weight="normal" text-decoration="normal" x="753" y="648" text-anchor="start" dominant-baseline="alphabetic" stroke-opacity="1" stroke-linejoin="bevel" stroke-miterlimit="10" stroke-width="3">1</text><text fill="rgb(0,0,0)" stroke="none" font-family="geogebra-sans-serif, sans-serif" font-size="21px" font-style="normal" font-weight="normal" text-decoration="normal" x="753" y="648" text-anchor="start" dominant-baseline="alphabetic" fill-opacity="1">1</text><text fill="rgb(0,0,0)" stroke="none" font-family="geogebra-sans-serif, sans-serif" font-size="21px" font-style="normal" font-weight="normal" text-decoration="normal" x="835" y="648" text-anchor="start" dominant-baseline="alphabetic" fill-opacity="1">1.2</text><text fill="none" stroke="rgb(255,255,255)" font-family="geogebra-sans-serif, sans-serif" font-size="21px" font-style="normal" font-weight="normal" text-decoration="normal" x="835" y="648" text-anchor="start" dominant-baseline="alphabetic" stroke-opacity="1" stroke-linejoin="bevel" stroke-miterlimit="10" stroke-width="3">1.2</text><text fill="rgb(0,0,0)" stroke="none" font-family="geogebra-sans-serif, sans-serif" font-size="21px" font-style="normal" font-weight="normal" text-decoration="normal" x="835" y="648" text-anchor="start" dominant-baseline="alphabetic" fill-opacity="1">1.2</text><text fill="rgb(0,0,0)" stroke="none" font-family="geogebra-sans-serif, sans-serif" font-size="21px" font-style="normal" font-weight="normal" text-decoration="normal" x="927" y="648" text-anchor="start" dominant-baseline="alphabetic" fill-opacity="1">1.4</text><text fill="none" stroke="rgb(255,255,255)" font-family="geogebra-sans-serif, sans-serif" font-size="21px" font-style="normal" font-weight="normal" text-decoration="normal" x="927" y="648" text-anchor="start" dominant-baseline="alphabetic" stroke-opacity="1" stroke-linejoin="bevel" stroke-miterlimit="10" stroke-width="3">1.4</text><text fill="rgb(0,0,0)" stroke="none" font-family="geogebra-sans-serif, sans-serif" font-size="21px" font-style="normal" font-weight="normal" text-decoration="normal" x="927" y="648" text-anchor="start" dominant-baseline="alphabetic" fill-opacity="1">1.4</text><text fill="rgb(0,0,0)" stroke="none" font-family="geogebra-sans-serif, sans-serif" font-size="21px" font-style="normal" font-weight="normal" text-decoration="normal" x="1019" y="648" text-anchor="start" dominant-baseline="alphabetic" fill-opacity="1">1.6</text><text fill="none" stroke="rgb(255,255,255)" font-family="geogebra-sans-serif, sans-serif" font-size="21px" font-style="normal" font-weight="normal" text-decoration="normal" x="1019" y="648" text-anchor="start" dominant-baseline="alphabetic" stroke-opacity="1" stroke-linejoin="bevel" stroke-miterlimit="10" stroke-width="3">1.6</text><text fill="rgb(0,0,0)" stroke="none" font-family="geogebra-sans-serif, sans-serif" font-size="21px" font-style="normal" font-weight="normal" text-decoration="normal" x="1019" y="648" text-anchor="start" dominant-baseline="alphabetic" fill-opacity="1">1.6</text><text fill="rgb(0,0,0)" stroke="none" font-family="geogebra-sans-serif, sans-serif" font-size="21px" font-style="normal" font-weight="normal" text-decoration="normal" x="1111" y="648" text-anchor="start" dominant-baseline="alphabetic" fill-opacity="1">1.8</text><text fill="none" stroke="rgb(255,255,255)" font-family="geogebra-sans-serif, sans-serif" font-size="21px" font-style="normal" font-weight="normal" text-decoration="normal" x="1111" y="648" text-anchor="start" dominant-baseline="alphabetic" stroke-opacity="1" stroke-linejoin="bevel" stroke-miterlimit="10" stroke-width="3">1.8</text><text fill="rgb(0,0,0)" stroke="none" font-family="geogebra-sans-serif, sans-serif" font-size="21px" font-style="normal" font-weight="normal" text-decoration="normal" x="1111" y="648" text-anchor="start" dominant-baseline="alphabetic" fill-opacity="1">1.8</text><text fill="rgb(0,0,0)" stroke="none" font-family="geogebra-sans-serif, sans-serif" font-size="21px" font-style="normal" font-weight="normal" text-decoration="normal" x="251" y="725" text-anchor="start" dominant-baseline="alphabetic" fill-opacity="1">–0.2</text><text fill="none" stroke="rgb(255,255,255)" font-family="geogebra-sans-serif, sans-serif" font-size="21px" font-style="normal" font-weight="normal" text-decoration="normal" x="251" y="725" text-anchor="start" dominant-baseline="alphabetic" stroke-opacity="1" stroke-linejoin="bevel" stroke-miterlimit="10" stroke-width="3">–0.2</text><text fill="rgb(0,0,0)" stroke="none" font-family="geogebra-sans-serif, sans-serif" font-size="21px" font-style="normal" font-weight="normal" text-decoration="normal" x="251" y="725" text-anchor="start" dominant-baseline="alphabetic" fill-opacity="1">–0.2</text><text fill="rgb(0,0,0)" stroke="none" font-family="geogebra-sans-serif, sans-serif" font-size="21px" font-style="normal" font-weight="normal" text-decoration="normal" x="262" y="540" text-anchor="start" dominant-baseline="alphabetic" fill-opacity="1">0.2</text><text fill="none" stroke="rgb(255,255,255)" font-family="geogebra-sans-serif, sans-serif" font-size="21px" font-style="normal" font-weight="normal" text-decoration="normal" x="262" y="540" text-anchor="start" dominant-baseline="alphabetic" stroke-opacity="1" stroke-linejoin="bevel" stroke-miterlimit="10" stroke-width="3">0.2</text><text fill="rgb(0,0,0)" stroke="none" font-family="geogebra-sans-serif, sans-serif" font-size="21px" font-style="normal" font-weight="normal" text-decoration="normal" x="262" y="540" text-anchor="start" dominant-baseline="alphabetic" fill-opacity="1">0.2</text><text fill="rgb(0,0,0)" stroke="none" font-family="geogebra-sans-serif, sans-serif" font-size="21px" font-style="normal" font-weight="normal" text-decoration="normal" x="262" y="448" text-anchor="start" dominant-baseline="alphabetic" fill-opacity="1">0.4</text><text fill="none" stroke="rgb(255,255,255)" font-family="geogebra-sans-serif, sans-serif" font-size="21px" font-style="normal" font-weight="normal" text-decoration="normal" x="262" y="448" text-anchor="start" dominant-baseline="alphabetic" stroke-opacity="1" stroke-linejoin="bevel" stroke-miterlimit="10" stroke-width="3">0.4</text><text fill="rgb(0,0,0)" stroke="none" font-family="geogebra-sans-serif, sans-serif" font-size="21px" font-style="normal" font-weight="normal" text-decoration="normal" x="262" y="448" text-anchor="start" dominant-baseline="alphabetic" fill-opacity="1">0.4</text><text fill="rgb(0,0,0)" stroke="none" font-family="geogebra-sans-serif, sans-serif" font-size="21px" font-style="normal" font-weight="normal" text-decoration="normal" x="262" y="356" text-anchor="start" dominant-baseline="alphabetic" fill-opacity="1">0.6</text><text fill="none" stroke="rgb(255,255,255)" font-family="geogebra-sans-serif, sans-serif" font-size="21px" font-style="normal" font-weight="normal" text-decoration="normal" x="262" y="356" text-anchor="start" dominant-baseline="alphabetic" stroke-opacity="1" stroke-linejoin="bevel" stroke-miterlimit="10" stroke-width="3">0.6</text><text fill="rgb(0,0,0)" stroke="none" font-family="geogebra-sans-serif, sans-serif" font-size="21px" font-style="normal" font-weight="normal" text-decoration="normal" x="262" y="356" text-anchor="start" dominant-baseline="alphabetic" fill-opacity="1">0.6</text><text fill="rgb(0,0,0)" stroke="none" font-family="geogebra-sans-serif, sans-serif" font-size="21px" font-style="normal" font-weight="normal" text-decoration="normal" x="262" y="264" text-anchor="start" dominant-baseline="alphabetic" fill-opacity="1">0.8</text><text fill="none" stroke="rgb(255,255,255)" font-family="geogebra-sans-serif, sans-serif" font-size="21px" font-style="normal" font-weight="normal" text-decoration="normal" x="262" y="264" text-anchor="start" dominant-baseline="alphabetic" stroke-opacity="1" stroke-linejoin="bevel" stroke-miterlimit="10" stroke-width="3">0.8</text><text fill="rgb(0,0,0)" stroke="none" font-family="geogebra-sans-serif, sans-serif" font-size="21px" font-style="normal" font-weight="normal" text-decoration="normal" x="262" y="264" text-anchor="start" dominant-baseline="alphabetic" fill-opacity="1">0.8</text><text fill="rgb(0,0,0)" stroke="none" font-family="geogebra-sans-serif, sans-serif" font-size="21px" font-style="normal" font-weight="normal" text-decoration="normal" x="277" y="172" text-anchor="start" dominant-baseline="alphabetic" fill-opacity="1">1</text><text fill="none" stroke="rgb(255,255,255)" font-family="geogebra-sans-serif, sans-serif" font-size="21px" font-style="normal" font-weight="normal" text-decoration="normal" x="277" y="172" text-anchor="start" dominant-baseline="alphabetic" stroke-opacity="1" stroke-linejoin="bevel" stroke-miterlimit="10" stroke-width="3">1</text><text fill="rgb(0,0,0)" stroke="none" font-family="geogebra-sans-serif, sans-serif" font-size="21px" font-style="normal" font-weight="normal" text-decoration="normal" x="277" y="172" text-anchor="start" dominant-baseline="alphabetic" fill-opacity="1">1</text><text fill="rgb(0,0,0)" stroke="none" font-family="geogebra-sans-serif, sans-serif" font-size="21px" font-style="normal" font-weight="normal" text-decoration="normal" x="262" y="80" text-anchor="start" dominant-baseline="alphabetic" fill-opacity="1">1.2</text><text fill="none" stroke="rgb(255,255,255)" font-family="geogebra-sans-serif, sans-serif" font-size="21px" font-style="normal" font-weight="normal" text-decoration="normal" x="262" y="80" text-anchor="start" dominant-baseline="alphabetic" stroke-opacity="1" stroke-linejoin="bevel" stroke-miterlimit="10" stroke-width="3">1.2</text><text fill="rgb(0,0,0)" stroke="none" font-family="geogebra-sans-serif, sans-serif" font-size="21px" font-style="normal" font-weight="normal" text-decoration="normal" x="262" y="80" text-anchor="start" dominant-baseline="alphabetic" fill-opacity="1">1.2</text><text fill="rgb(0,0,0)" stroke="none" font-family="geogebra-sans-serif, sans-serif" font-size="21px" font-style="normal" font-weight="normal" text-decoration="normal" x="277" y="648" text-anchor="start" dominant-baseline="alphabetic" fill-opacity="1">0</text><text fill="none" stroke="rgb(255,255,255)" font-family="geogebra-sans-serif, sans-serif" font-size="21px" font-style="normal" font-weight="normal" text-decoration="normal" x="277" y="648" text-anchor="start" dominant-baseline="alphabetic" stroke-opacity="1" stroke-linejoin="bevel" stroke-miterlimit="10" stroke-width="3">0</text><text fill="rgb(0,0,0)" stroke="none" font-family="geogebra-sans-serif, sans-serif" font-size="21px" font-style="normal" font-weight="normal" text-decoration="normal" x="277" y="648" text-anchor="start" dominant-baseline="alphabetic" fill-opacity="1">0</text><path fill="none" stroke="rgb(255,0,0)" paint-order="fill stroke markers" d=" M 182.52637177434593 1199.0814284646176 C 412.7347534764338 -182.16886174791 642.9431351785217 -182.16886174791 873.1515168806095 1199.0814284646176" stroke-opacity="0.6980392156862745" stroke-linecap="round" stroke-linejoin="round" stroke-miterlimit="10" stroke-width="2.5"/><text fill="rgb(255,0,0)" stroke="none" font-family="geogebra-sans-serif, sans-serif" font-size="28px" font-style="normal" font-weight="normal" text-decoration="normal" x="461" y="247" text-anchor="start" dominant-baseline="alphabetic" fill-opacity="1">y = 4x - 4x²</text><text fill="none" stroke="rgb(255,255,255)" font-family="geogebra-sans-serif, sans-serif" font-size="28px" font-style="normal" font-weight="normal" text-decoration="normal" x="461" y="247" text-anchor="start" dominant-baseline="alphabetic" stroke-opacity="1" stroke-linejoin="bevel" stroke-miterlimit="10" stroke-width="3">y = 4x - 4x²</text><text fill="rgb(255,0,0)" stroke="none" font-family="geogebra-sans-serif, sans-serif" font-size="28px" font-style="normal" font-weight="normal" text-decoration="normal" x="461" y="247" text-anchor="start" dominant-baseline="alphabetic" fill-opacity="1">y = 4x - 4x²</text><path fill="none" stroke="rgb(0,100,0)" paint-order="fill stroke markers" d=" M 297.6305626253899 623.5604742093979 L 298.33620321904243 615.94563840718 L 299.04184381269494 609.7436464246177 L 299.7474844063475 604.0758987418491 L 300.453125 598.75564116035 M 300.453125 598.75564116035 L 301.57421875 590.8132943775715 L 302.6953125 583.3411119561562 L 303.81640625 576.2339083942984 L 304.9375 569.4254523766465 M 304.9375 569.4254523766465 L 306.05859375 562.8701360457732 L 307.1796875 556.5346159486496 L 308.30078125 550.3934430135314 L 309.421875 544.4265517320373 L 310.54296875 538.6177135075437 L 311.6640625 532.9535313689444 L 312.78515625 527.422758012551 L 313.90625 522.0158167469323 L 315.02734375 516.7244550473044 L 316.1484375 511.5414877742579 L 317.26953125 506.4606027952118 L 318.390625 501.47621112830393 L 320.6328125 491.7774872971694 L 322.875 482.4111638446815 M 322.875 482.4111638446815 L 325.1171875 473.34919770262724 L 327.359375 464.56815260320366 L 329.6015625 456.0481524115285 L 331.84375 447.77212951036006 L 334.0859375 439.7252710454866 L 336.328125 431.894601906847 L 338.5703125 424.2686646737766 L 340.8125 416.8372698780137 L 343.0546875 409.5912982712007 L 345.296875 402.5225422258186 L 347.5390625 395.6235770422595 L 349.78125 388.88765542887705 L 352.0234375 382.3086201631477 L 354.265625 375.88083117954943 L 356.5078125 369.5991042234609 L 358.75 363.45865886530277 M 358.75 363.45865886530277 L 360.9921875 357.45507415552225 L 363.234375 351.58425056670217 L 365.4765625 345.8423771470983 L 367.71875 340.2259030235178 L 369.9609375 334.73151255714805 L 372.203125 329.3561035856341 L 374.4453125 324.09676828705824 L 376.6875 318.9507762828959 L 381.171875 308.98869966229046 L 385.65625 299.4510501457501 L 390.140625 290.32103884998685 L 394.625 281.5836191650478 L 399.109375 273.225248705443 L 403.59375 265.23369360468655 L 408.078125 257.5978661867651 L 412.5625 250.30768923806278 L 417.046875 243.35398169380454 L 421.53125 236.72836172466504 L 426.015625 230.42316408344374 L 430.5 224.4313692318865 M 430.5 224.4313692318865 L 434.984375 218.74654227176939 L 439.46875 213.36278009312838 L 443.953125 208.2746654552211 L 448.4375 203.47722695360284 L 452.921875 198.96590401506438 L 457.40625 194.7365162125571 L 461.890625 190.78523631319075 L 466.375 187.10856657037039 L 470.859375 183.70331785106032 L 475.34375 180.56659125479024 L 479.828125 177.6957619352595 L 484.3125 175.08846488053388 L 488.796875 172.74258244563111 L 493.28125 170.65623346318768 L 497.765625 168.8277637849951 L 502.25 167.2557381304144 L 506.734375 165.9389331377318 L 511.21875 164.8763315320279 L 515.703125 164.06711733857395 L 520.1875 163.51067208456607 L 524.671875 163.2065719445127 L 529.15625 163.15458579609395 L 533.640625 163.35467416409944 L 538.125 163.80698904034466 L 542.609375 164.51187457751087 L 547.09375 165.46986866484434 L 551.578125 166.68170540381527 L 556.0625 168.14831851239734 L 560.546875 169.8708456977996 L 565.03125 171.85063404954656 L 569.515625 174.0892465180208 L 574 176.5884695583032 M 574 176.5884695583032 L 578.484375 179.35032203574565 L 582.96875 182.37706550864948 L 587.453125 185.67121602525884 L 591.9375 189.23555759767362 L 596.421875 193.07315754508323 L 600.90625 197.1873839339322 L 605.390625 201.58192538455256 L 609.875 206.2608135640349 L 614.359375 211.22844874573042 L 618.84375 216.48962888940156 L 623.328125 222.04958278604272 L 627.8125 227.91400792219605 L 632.296875 234.08911385592654 L 636.78125 240.5816720681147 L 641.265625 247.39907346851805 L 645.75 254.54939500978605 L 650.234375 262.0414772128676 L 654.71875 269.8850148595471 L 659.203125 278.0906636977235 L 663.6875 286.670166782584 L 668.171875 295.6365051135793 L 672.65625 305.00407862690145 L 677.140625 314.78892551905153 L 679.3828125 319.84335118370905 L 681.625 325.00899053878845 L 683.8671875 330.28843892466415 L 686.109375 335.68445664390964 L 688.3515625 341.19998425283745 L 690.59375 346.83815982580586 L 692.8359375 352.6023385204048 L 695.078125 358.496114839413 L 697.3203125 364.523348070117 L 699.5625 370.688191488208 L 701.8046875 376.99512604875986 L 704.046875 383.4489994599023 L 706.2890625 390.0550717583404 L 708.53125 396.81906879732355 L 710.7734375 403.7472454417487 L 713.015625 410.84646077698443 L 715.2578125 418.1242683288632 L 717.5 425.5890252373156 M 717.5 425.5890252373156 L 719.7421875 433.2500256382641 L 721.984375 441.11766536021395 L 724.2265625 449.20364770325347 L 726.46875 457.5212439704515 L 728.7109375 466.08562827413266 L 730.953125 474.91431514290923 L 733.1953125 484.0277427123165 L 735.4375 493.4500676197356 L 737.6796875 503.2102774269067 L 738.80078125 508.2278495848684 L 739.921875 513.343797064865 L 741.04296875 518.5639471680145 L 742.1640625 523.8948985861223 L 743.28515625 529.3441852273604 L 744.40625 534.9204900188331 L 745.52734375 540.6339293402971 L 746.6484375 546.4964399243421 L 747.76953125 552.5223190139089 L 748.890625 558.7290021712151 L 750.01171875 565.1382259606821 L 751.1328125 571.7778480613589 L 752.25390625 578.6848684095164 L 753.375 585.9108453850463 M 753.375 585.9108453850463 L 754.49609375 593.5326969466744 L 755.6171875 601.6779541400283 L 756.73828125 610.6023390570954 L 757.298828125 615.5468699544133 L 757.859375 621.1733517196728 M 757.859375 621.1733517196728 L 758.0473260295656 623.560474209395" stroke-opacity="0.6980392156862745" stroke-linecap="round" stroke-linejoin="round" stroke-miterlimit="10" stroke-width="2.5"/><g transform="scale(31,31)"><g transform="translate(9.741935483870968,23.288709677419355)"><path fill="rgb(0,100,0)" stroke="none" paint-order="stroke fill markers" d=" M 0.334 -0.302 L 0.3 -0.165 Q 0.28300000000000003 -0.097 0.28300000000000003 -0.077 Q 0.28300000000000003 -0.025 0.32 -0.014 Q 0.328 -0.011 0.338 -0.011 Q 0.388 -0.011 0.429 -0.061 Q 0.456 -0.093 0.47100000000000003 -0.14200000000000002 Q 0.47400000000000003 -0.153 0.484 -0.153 Q 0.496 -0.153 0.496 -0.14300000000000002 Q 0.496 -0.11800000000000001 0.465 -0.07100000000000001 Q 0.41100000000000003 0.011 0.336 0.011 Q 0.268 0.011 0.23700000000000002 -0.046 Q 0.231 -0.055 0.228 -0.065 Q 0.20400000000000001 -0.017 0.162 0.002 Q 0.14300000000000002 0.011 0.123 0.011 Q 0.063 0.011 0.039 -0.024 Q 0.029 -0.037 0.029 -0.055 Q 0.029 -0.092 0.061 -0.107 Q 0.07200000000000001 -0.113 0.084 -0.113 Q 0.114 -0.113 0.12 -0.088 Q 0.121 -0.083 0.121 -0.078 Q 0.121 -0.044 0.08700000000000001 -0.028 Q 0.081 -0.025 0.074 -0.024 Q 0.095 -0.011 0.124 -0.011 Q 0.177 -0.011 0.20800000000000002 -0.082 Q 0.214 -0.097 0.219 -0.115 Q 0.273 -0.319 0.273 -0.353 Q 0.267 -0.41500000000000004 0.219 -0.42 Q 0.167 -0.42 0.124 -0.367 L 0.124 -0.366 Q 0.124 -0.365 0.123 -0.365 Q 0.108 -0.34500000000000003 0.096 -0.319 Q 0.091 -0.307 0.08700000000000001 -0.295 L 0.085 -0.289 Q 0.083 -0.278 0.07200000000000001 -0.278 Q 0.06 -0.278 0.06 -0.28800000000000003 Q 0.06 -0.313 0.092 -0.36 Q 0.146 -0.442 0.221 -0.442 Q 0.298 -0.442 0.329 -0.366 Q 0.361 -0.428 0.41400000000000003 -0.44 Q 0.424 -0.442 0.434 -0.442 Q 0.493 -0.442 0.517 -0.40900000000000003 Q 0.527 -0.395 0.527 -0.376 Q 0.527 -0.335 0.49 -0.321 Q 0.481 -0.318 0.47300000000000003 -0.318 Q 0.442 -0.318 0.436 -0.34500000000000003 Q 0.435 -0.34900000000000003 0.435 -0.353 Q 0.435 -0.383 0.464 -0.4 Q 0.47300000000000003 -0.405 0.483 -0.40700000000000003 Q 0.462 -0.42 0.433 -0.42 Q 0.365 -0.42 0.337 -0.314 Q 0.335 -0.308 0.334 -0.302 Z"/></g><g transform="translate(10.758379928315412,23.288709677419355)"><path fill="rgb(0,100,0)" stroke="none" paint-order="stroke fill markers" d=" M 0.177 -0.6940000000000001 L 0.177 -0.076 Q 0.177 -0.042 0.193 -0.036000000000000004 Q 0.20400000000000001 -0.031 0.255 -0.031 L 0.255 0 L 0.14400000000000002 -0.003 Q 0.132 -0.003 0.033 0 L 0.033 -0.031 Q 0.092 -0.031 0.10200000000000001 -0.04 L 0.10400000000000001 -0.042 Q 0.111 -0.05 0.111 -0.076 L 0.111 -0.596 Q 0.111 -0.635 0.097 -0.644 L 0.096 -0.644 Q 0.085 -0.65 0.058 -0.652 L 0.033 -0.652 L 0.033 -0.683 L 0.177 -0.6940000000000001 Z"/></g><g transform="translate(11.036379928315412,23.288709677419355)"><path fill="rgb(0,100,0)" stroke="none" paint-order="stroke fill markers" d=" M 0.47100000000000003 -0.214 L 0.47100000000000003 -0.214 Q 0.47100000000000003 -0.111 0.395 -0.044 Q 0.332 0.011 0.249 0.011 Q 0.153 0.011 0.08700000000000001 -0.061 Q 0.028 -0.126 0.028 -0.214 Q 0.028 -0.316 0.101 -0.386 Q 0.164 -0.448 0.25 -0.448 Q 0.34700000000000003 -0.448 0.41300000000000003 -0.371 Q 0.47100000000000003 -0.304 0.47100000000000003 -0.214 M 0.25 -0.014 L 0.25 -0.014 Q 0.317 -0.014 0.356 -0.07 L 0.366 -0.088 Q 0.388 -0.132 0.388 -0.222 Q 0.388 -0.318 0.362 -0.361 Q 0.319 -0.423 0.249 -0.426 Q 0.187 -0.426 0.147 -0.376 Q 0.14 -0.368 0.135 -0.359 Q 0.111 -0.315 0.111 -0.222 Q 0.111 -0.125 0.136 -0.081 Q 0.178 -0.016 0.25 -0.014 Z"/></g><g transform="translate(11.536379928315412,23.288709677419355)"><path fill="rgb(0,100,0)" stroke="none" paint-order="stroke fill markers" d=" M 0.222 -0.17200000000000001 Q 0.266 -0.17200000000000001 0.293 -0.212 Q 0.309 -0.23900000000000002 0.309 -0.296 Q 0.305 -0.41600000000000004 0.222 -0.419 Q 0.178 -0.419 0.151 -0.379 Q 0.135 -0.352 0.135 -0.295 Q 0.139 -0.17500000000000002 0.222 -0.17200000000000001 M 0.123 -0.18 Q 0.106 -0.16 0.106 -0.133 Q 0.106 -0.092 0.138 -0.073 Q 0.148 -0.067 0.159 -0.066 Q 0.166 -0.065 0.234 -0.065 Q 0.337 -0.065 0.384 -0.047 Q 0.395 -0.043000000000000003 0.406 -0.037 Q 0.467 0.003 0.47100000000000003 0.077 Q 0.47100000000000003 0.14200000000000002 0.387 0.179 Q 0.327 0.20600000000000002 0.249 0.20600000000000002 Q 0.133 0.20600000000000002 0.068 0.152 Q 0.028 0.12 0.028 0.079 Q 0.028 0.029 0.079 -0.003 Q 0.097 -0.015 0.12 -0.021 Q 0.079 -0.053 0.076 -0.11 Q 0.076 -0.157 0.107 -0.193 Q 0.062 -0.23600000000000002 0.06 -0.296 Q 0.06 -0.365 0.12 -0.40900000000000003 Q 0.164 -0.442 0.222 -0.442 Q 0.28200000000000003 -0.442 0.328 -0.406 Q 0.376 -0.453 0.434 -0.453 Q 0.47300000000000003 -0.453 0.483 -0.417 Q 0.485 -0.41100000000000003 0.485 -0.404 Q 0.481 -0.378 0.456 -0.374 Q 0.434 -0.374 0.428 -0.395 Q 0.427 -0.399 0.427 -0.403 Q 0.427 -0.424 0.443 -0.43 Q 0.44 -0.431 0.433 -0.431 Q 0.384 -0.431 0.343 -0.392 Q 0.384 -0.354 0.384 -0.295 Q 0.384 -0.226 0.324 -0.182 Q 0.28 -0.149 0.222 -0.149 Q 0.166 -0.149 0.123 -0.18 M 0.25 0.183 L 0.25 0.183 Q 0.34500000000000003 0.183 0.394 0.133 Q 0.419 0.108 0.419 0.079 Q 0.419 0.005 0.301 -0.005 L 0.301 -0.005 L 0.3 -0.005 Q 0.274 -0.007 0.221 -0.007 L 0.162 -0.007 Q 0.115 -0.004 0.091 0.038 Q 0.08 0.057 0.08 0.079 Q 0.08 0.126 0.138 0.157 Q 0.185 0.183 0.25 0.183 Z"/></g><g transform="translate(12.050379928315412,23.517709677419354) scale(0.7,0.7)"><path fill="rgb(0,100,0)" stroke="none" paint-order="stroke fill markers" d=" M 0.449 -0.17400000000000002 L 0.449 -0.17400000000000002 L 0.421 0 L 0.05 0 Q 0.05 -0.025 0.056 -0.032 L 0.061 -0.037 L 0.253 -0.251 Q 0.358 -0.369 0.358 -0.47200000000000003 Q 0.358 -0.561 0.304 -0.607 L 0.303 -0.608 L 0.302 -0.608 Q 0.27 -0.635 0.224 -0.635 Q 0.152 -0.635 0.109 -0.5730000000000001 Q 0.097 -0.555 0.089 -0.533 Q 0.092 -0.534 0.10200000000000001 -0.534 Q 0.14200000000000002 -0.534 0.153 -0.498 L 0.153 -0.497 Q 0.155 -0.49 0.155 -0.482 Q 0.155 -0.442 0.117 -0.431 Q 0.109 -0.429 0.10300000000000001 -0.429 Q 0.066 -0.429 0.054 -0.46 Q 0.05 -0.47100000000000003 0.05 -0.485 Q 0.05 -0.562 0.109 -0.617 Q 0.162 -0.666 0.23700000000000002 -0.666 Q 0.34700000000000003 -0.666 0.40800000000000003 -0.592 Q 0.443 -0.549 0.448 -0.49 Q 0.449 -0.481 0.449 -0.47200000000000003 Q 0.449 -0.399 0.394 -0.333 Q 0.365 -0.299 0.304 -0.243 L 0.243 -0.189 L 0.233 -0.18 L 0.127 -0.077 L 0.307 -0.077 Q 0.395 -0.077 0.402 -0.085 Q 0.41200000000000003 -0.099 0.424 -0.17400000000000002 L 0.449 -0.17400000000000002 Z"/></g><g transform="translate(12.400379928315411,21.878709677419355)"><path fill="rgb(0,100,0)" stroke="none" paint-order="stroke fill markers" d=" M 0.662109375 2.35693359375 Q 0.5390625 2.248046875 0.451171875 2.10888671875 Q 0.36328125 1.9697265625 0.31005859375 1.81494140625 Q 0.2568359375 1.66015625 0.232421875 1.494873046875 Q 0.2080078125 1.32958984375 0.2080078125 1.16015625 Q 0.2080078125 0.98974609375 0.232421875 0.823974609375 Q 0.2568359375 0.658203125 0.309814453125 0.50390625 Q 0.36279296875 0.349609375 0.450927734375 0.210205078125 Q 0.5390625 0.07080078125 0.662109375 -0.0380859375 Q 0.662109375 -0.0400390625 0.6669921875 -0.0400390625 L 0.69287109375 -0.0400390625 Q 0.69580078125 -0.0400390625 0.698486328125 -0.037109375 Q 0.701171875 -0.0341796875 0.701171875 -0.03076171875 Q 0.701171875 -0.02685546875 0.69921875 -0.02490234375 Q 0.5849609375 0.087890625 0.506103515625 0.22607421875 Q 0.42724609375 0.3642578125 0.380859375 0.51708984375 Q 0.33447265625 0.669921875 0.314697265625 0.8310546875 Q 0.294921875 0.9921875 0.294921875 1.16015625 Q 0.294921875 1.32763671875 0.314453125 1.486572265625 Q 0.333984375 1.6455078125 0.380859375 1.80029296875 Q 0.427734375 1.955078125 0.5068359375 2.09326171875 Q 0.5859375 2.2314453125 0.69921875 2.34423828125 Q 0.701171875 2.34619140625 0.701171875 2.35009765625 Q 0.701171875 2.35302734375 0.6982421875 2.35595703125 Q 0.6953125 2.35888671875 0.69287109375 2.35888671875 L 0.6669921875 2.35888671875 Q 0.662109375 2.35888671875 0.662109375 2.35693359375 Z"/></g><g transform="translate(13.210944986763154,22.612201677419353)"><path fill="rgb(0,100,0)" stroke="none" paint-order="stroke fill markers" d=" M 0.294 -0.64 L 0.294 -0.079 Q 0.294 -0.049 0.306 -0.041 Q 0.323 -0.031 0.387 -0.031 L 0.419 -0.031 L 0.419 0 Q 0.384 -0.003 0.257 -0.003 Q 0.13 -0.003 0.095 0 L 0.095 -0.031 L 0.127 -0.031 Q 0.20400000000000001 -0.031 0.215 -0.049 L 0.216 -0.05 Q 0.22 -0.058 0.22 -0.079 L 0.22 -0.597 Q 0.168 -0.5710000000000001 0.089 -0.5710000000000001 L 0.089 -0.602 Q 0.209 -0.602 0.271 -0.666 Q 0.29 -0.666 0.293 -0.659 L 0.293 -0.659 L 0.293 -0.658 Q 0.294 -0.655 0.294 -0.64 Z"/></g><rect fill="rgb(0,100,0)" stroke="none" x="13.174944986763155" y="23.018710177419354" width="0.5720000000000001" height="0.039999"/><g transform="translate(13.174944986763155,23.974660677419358)"><path fill="rgb(0,100,0)" stroke="none" paint-order="stroke fill markers" d=" M 0.334 -0.302 L 0.3 -0.165 Q 0.28300000000000003 -0.097 0.28300000000000003 -0.077 Q 0.28300000000000003 -0.025 0.32 -0.014 Q 0.328 -0.011 0.338 -0.011 Q 0.388 -0.011 0.429 -0.061 Q 0.456 -0.093 0.47100000000000003 -0.14200000000000002 Q 0.47400000000000003 -0.153 0.484 -0.153 Q 0.496 -0.153 0.496 -0.14300000000000002 Q 0.496 -0.11800000000000001 0.465 -0.07100000000000001 Q 0.41100000000000003 0.011 0.336 0.011 Q 0.268 0.011 0.23700000000000002 -0.046 Q 0.231 -0.055 0.228 -0.065 Q 0.20400000000000001 -0.017 0.162 0.002 Q 0.14300000000000002 0.011 0.123 0.011 Q 0.063 0.011 0.039 -0.024 Q 0.029 -0.037 0.029 -0.055 Q 0.029 -0.092 0.061 -0.107 Q 0.07200000000000001 -0.113 0.084 -0.113 Q 0.114 -0.113 0.12 -0.088 Q 0.121 -0.083 0.121 -0.078 Q 0.121 -0.044 0.08700000000000001 -0.028 Q 0.081 -0.025 0.074 -0.024 Q 0.095 -0.011 0.124 -0.011 Q 0.177 -0.011 0.20800000000000002 -0.082 Q 0.214 -0.097 0.219 -0.115 Q 0.273 -0.319 0.273 -0.353 Q 0.267 -0.41500000000000004 0.219 -0.42 Q 0.167 -0.42 0.124 -0.367 L 0.124 -0.366 Q 0.124 -0.365 0.123 -0.365 Q 0.108 -0.34500000000000003 0.096 -0.319 Q 0.091 -0.307 0.08700000000000001 -0.295 L 0.085 -0.289 Q 0.083 -0.278 0.07200000000000001 -0.278 Q 0.06 -0.278 0.06 -0.28800000000000003 Q 0.06 -0.313 0.092 -0.36 Q 0.146 -0.442 0.221 -0.442 Q 0.298 -0.442 0.329 -0.366 Q 0.361 -0.428 0.41400000000000003 -0.44 Q 0.424 -0.442 0.434 -0.442 Q 0.493 -0.442 0.517 -0.40900000000000003 Q 0.527 -0.395 0.527 -0.376 Q 0.527 -0.335 0.49 -0.321 Q 0.481 -0.318 0.47300000000000003 -0.318 Q 0.442 -0.318 0.436 -0.34500000000000003 Q 0.435 -0.34900000000000003 0.435 -0.353 Q 0.435 -0.383 0.464 -0.4 Q 0.47300000000000003 -0.405 0.483 -0.40700000000000003 Q 0.462 -0.42 0.433 -0.42 Q 0.365 -0.42 0.337 -0.314 Q 0.335 -0.308 0.334 -0.302 Z"/></g><g transform="translate(13.785510045210895,21.878709677419355)"><path fill="rgb(0,100,0)" stroke="none" paint-order="stroke fill markers" d=" M 0.04296875 2.35888671875 Q 0.0341796875 2.35888671875 0.0341796875 2.35009765625 Q 0.0341796875 2.34619140625 0.0361328125 2.34423828125 Q 0.150390625 2.2314453125 0.22900390625 2.093017578125 Q 0.3076171875 1.95458984375 0.35400390625 1.802001953125 Q 0.400390625 1.6494140625 0.420166015625 1.489990234375 Q 0.43994140625 1.33056640625 0.43994140625 1.1591796875 Q 0.43994140625 0.98583984375 0.420166015625 0.82763671875 Q 0.400390625 0.66943359375 0.3544921875 0.517578125 Q 0.30859375 0.36572265625 0.22900390625 0.226318359375 Q 0.1494140625 0.0869140625 0.0361328125 -0.02490234375 Q 0.0341796875 -0.02685546875 0.0341796875 -0.03076171875 Q 0.0341796875 -0.0400390625 0.04296875 -0.0400390625 L 0.06884765625 -0.0400390625 Q 0.072265625 -0.0400390625 0.07421875 -0.0380859375 Q 0.19775390625 0.0712890625 0.28564453125 0.210693359375 Q 0.37353515625 0.35009765625 0.42626953125 0.5048828125 Q 0.47900390625 0.65966796875 0.5029296875 0.82470703125 Q 0.52685546875 0.98974609375 0.52685546875 1.16015625 Q 0.52685546875 1.32958984375 0.5029296875 1.494140625 Q 0.47900390625 1.65869140625 0.42626953125 1.813720703125 Q 0.37353515625 1.96875 0.28564453125 2.108154296875 Q 0.19775390625 2.24755859375 0.07421875 2.35693359375 Q 0.072265625 2.35888671875 0.06884765625 2.35888671875 L 0.04296875 2.35888671875 Z"/></g><g transform="translate(14.688176711877562,23.288709677419355)"><path fill="rgb(0,100,0)" stroke="none" paint-order="stroke fill markers" d=" M 0.40900000000000003 -0.23 L 0.40900000000000003 0.05 Q 0.40900000000000003 0.082 0.389 0.083 Q 0.369 0.083 0.369 0.05 L 0.369 -0.23 L 0.089 -0.23 Q 0.057 -0.23 0.056 -0.25 Q 0.056 -0.27 0.089 -0.27 L 0.369 -0.27 L 0.369 -0.55 Q 0.369 -0.582 0.389 -0.583 Q 0.40900000000000003 -0.583 0.40900000000000003 -0.55 L 0.40900000000000003 -0.27 L 0.6880000000000001 -0.27 Q 0.72 -0.27 0.721 -0.25 Q 0.721 -0.23 0.6880000000000001 -0.23 L 0.40900000000000003 -0.23 Z"/></g><g transform="translate(15.688398934099784,23.288709677419355)"><path fill="rgb(0,100,0)" stroke="none" paint-order="stroke fill markers" d=" M 0.331 0.24 L 0.331 0.24 Q 0.331 0.25 0.321 0.25 Q 0.309 0.25 0.268 0.209 Q 0.20600000000000002 0.147 0.165 0.062 Q 0.099 -0.074 0.099 -0.25 Q 0.099 -0.419 0.162 -0.555 Q 0.214 -0.666 0.294 -0.733 Q 0.315 -0.75 0.321 -0.75 Q 0.331 -0.75 0.331 -0.74 Q 0.331 -0.735 0.318 -0.723 Q 0.157 -0.559 0.157 -0.25 Q 0.157 0.058 0.314 0.218 Q 0.331 0.23500000000000001 0.331 0.24 Z"/></g><g transform="translate(16.077398934099783,23.288709677419355)"><path fill="rgb(0,100,0)" stroke="none" paint-order="stroke fill markers" d=" M 0.294 -0.64 L 0.294 -0.079 Q 0.294 -0.049 0.306 -0.041 Q 0.323 -0.031 0.387 -0.031 L 0.419 -0.031 L 0.419 0 Q 0.384 -0.003 0.257 -0.003 Q 0.13 -0.003 0.095 0 L 0.095 -0.031 L 0.127 -0.031 Q 0.20400000000000001 -0.031 0.215 -0.049 L 0.216 -0.05 Q 0.22 -0.058 0.22 -0.079 L 0.22 -0.597 Q 0.168 -0.5710000000000001 0.089 -0.5710000000000001 L 0.089 -0.602 Q 0.209 -0.602 0.271 -0.666 Q 0.29 -0.666 0.293 -0.659 L 0.293 -0.659 L 0.293 -0.658 Q 0.294 -0.655 0.294 -0.64 Z"/></g><g transform="translate(16.799621156322004,23.288709677419355)"><path fill="rgb(0,100,0)" stroke="none" paint-order="stroke fill markers" d=" M 0.661 -0.23 L 0.116 -0.23 Q 0.084 -0.23 0.083 -0.25 Q 0.083 -0.27 0.116 -0.27 L 0.661 -0.27 Q 0.6930000000000001 -0.27 0.6940000000000001 -0.25 Q 0.6940000000000001 -0.23 0.661 -0.23 Z"/></g><g transform="translate(17.799843378544224,23.288709677419355)"><path fill="rgb(0,100,0)" stroke="none" paint-order="stroke fill markers" d=" M 0.334 -0.302 L 0.3 -0.165 Q 0.28300000000000003 -0.097 0.28300000000000003 -0.077 Q 0.28300000000000003 -0.025 0.32 -0.014 Q 0.328 -0.011 0.338 -0.011 Q 0.388 -0.011 0.429 -0.061 Q 0.456 -0.093 0.47100000000000003 -0.14200000000000002 Q 0.47400000000000003 -0.153 0.484 -0.153 Q 0.496 -0.153 0.496 -0.14300000000000002 Q 0.496 -0.11800000000000001 0.465 -0.07100000000000001 Q 0.41100000000000003 0.011 0.336 0.011 Q 0.268 0.011 0.23700000000000002 -0.046 Q 0.231 -0.055 0.228 -0.065 Q 0.20400000000000001 -0.017 0.162 0.002 Q 0.14300000000000002 0.011 0.123 0.011 Q 0.063 0.011 0.039 -0.024 Q 0.029 -0.037 0.029 -0.055 Q 0.029 -0.092 0.061 -0.107 Q 0.07200000000000001 -0.113 0.084 -0.113 Q 0.114 -0.113 0.12 -0.088 Q 0.121 -0.083 0.121 -0.078 Q 0.121 -0.044 0.08700000000000001 -0.028 Q 0.081 -0.025 0.074 -0.024 Q 0.095 -0.011 0.124 -0.011 Q 0.177 -0.011 0.20800000000000002 -0.082 Q 0.214 -0.097 0.219 -0.115 Q 0.273 -0.319 0.273 -0.353 Q 0.267 -0.41500000000000004 0.219 -0.42 Q 0.167 -0.42 0.124 -0.367 L 0.124 -0.366 Q 0.124 -0.365 0.123 -0.365 Q 0.108 -0.34500000000000003 0.096 -0.319 Q 0.091 -0.307 0.08700000000000001 -0.295 L 0.085 -0.289 Q 0.083 -0.278 0.07200000000000001 -0.278 Q 0.06 -0.278 0.06 -0.28800000000000003 Q 0.06 -0.313 0.092 -0.36 Q 0.146 -0.442 0.221 -0.442 Q 0.298 -0.442 0.329 -0.366 Q 0.361 -0.428 0.41400000000000003 -0.44 Q 0.424 -0.442 0.434 -0.442 Q 0.493 -0.442 0.517 -0.40900000000000003 Q 0.527 -0.395 0.527 -0.376 Q 0.527 -0.335 0.49 -0.321 Q 0.481 -0.318 0.47300000000000003 -0.318 Q 0.442 -0.318 0.436 -0.34500000000000003 Q 0.435 -0.34900000000000003 0.435 -0.353 Q 0.435 -0.383 0.464 -0.4 Q 0.47300000000000003 -0.405 0.483 -0.40700000000000003 Q 0.462 -0.42 0.433 -0.42 Q 0.365 -0.42 0.337 -0.314 Q 0.335 -0.308 0.334 -0.302 Z"/></g><g transform="translate(18.371843378544227,23.288709677419355)"><path fill="rgb(0,100,0)" stroke="none" paint-order="stroke fill markers" d=" M 0.289 -0.25 L 0.289 -0.25 Q 0.289 -0.081 0.226 0.055 Q 0.17400000000000002 0.166 0.094 0.233 Q 0.073 0.25 0.067 0.25 Q 0.057 0.25 0.057 0.24 Q 0.057 0.23500000000000001 0.07 0.223 Q 0.231 0.059000000000000004 0.231 -0.25 Q 0.231 -0.555 0.081 -0.712 L 0.076 -0.717 Q 0.057 -0.735 0.057 -0.74 Q 0.057 -0.75 0.067 -0.75 Q 0.079 -0.75 0.12 -0.709 Q 0.182 -0.647 0.223 -0.562 Q 0.289 -0.426 0.289 -0.25 Z"/></g><g transform="translate(19.205287822988677,23.288709677419355)"><path fill="rgb(0,100,0)" stroke="none" paint-order="stroke fill markers" d=" M 0.177 -0.6940000000000001 L 0.177 -0.076 Q 0.177 -0.042 0.193 -0.036000000000000004 Q 0.20400000000000001 -0.031 0.255 -0.031 L 0.255 0 L 0.14400000000000002 -0.003 Q 0.132 -0.003 0.033 0 L 0.033 -0.031 Q 0.092 -0.031 0.10200000000000001 -0.04 L 0.10400000000000001 -0.042 Q 0.111 -0.05 0.111 -0.076 L 0.111 -0.596 Q 0.111 -0.635 0.097 -0.644 L 0.096 -0.644 Q 0.085 -0.65 0.058 -0.652 L 0.033 -0.652 L 0.033 -0.683 L 0.177 -0.6940000000000001 Z"/></g><g transform="translate(19.483287822988675,23.288709677419355)"><path fill="rgb(0,100,0)" stroke="none" paint-order="stroke fill markers" d=" M 0.47100000000000003 -0.214 L 0.47100000000000003 -0.214 Q 0.47100000000000003 -0.111 0.395 -0.044 Q 0.332 0.011 0.249 0.011 Q 0.153 0.011 0.08700000000000001 -0.061 Q 0.028 -0.126 0.028 -0.214 Q 0.028 -0.316 0.101 -0.386 Q 0.164 -0.448 0.25 -0.448 Q 0.34700000000000003 -0.448 0.41300000000000003 -0.371 Q 0.47100000000000003 -0.304 0.47100000000000003 -0.214 M 0.25 -0.014 L 0.25 -0.014 Q 0.317 -0.014 0.356 -0.07 L 0.366 -0.088 Q 0.388 -0.132 0.388 -0.222 Q 0.388 -0.318 0.362 -0.361 Q 0.319 -0.423 0.249 -0.426 Q 0.187 -0.426 0.147 -0.376 Q 0.14 -0.368 0.135 -0.359 Q 0.111 -0.315 0.111 -0.222 Q 0.111 -0.125 0.136 -0.081 Q 0.178 -0.016 0.25 -0.014 Z"/></g><g transform="translate(19.983287822988675,23.288709677419355)"><path fill="rgb(0,100,0)" stroke="none" paint-order="stroke fill markers" d=" M 0.222 -0.17200000000000001 Q 0.266 -0.17200000000000001 0.293 -0.212 Q 0.309 -0.23900000000000002 0.309 -0.296 Q 0.305 -0.41600000000000004 0.222 -0.419 Q 0.178 -0.419 0.151 -0.379 Q 0.135 -0.352 0.135 -0.295 Q 0.139 -0.17500000000000002 0.222 -0.17200000000000001 M 0.123 -0.18 Q 0.106 -0.16 0.106 -0.133 Q 0.106 -0.092 0.138 -0.073 Q 0.148 -0.067 0.159 -0.066 Q 0.166 -0.065 0.234 -0.065 Q 0.337 -0.065 0.384 -0.047 Q 0.395 -0.043000000000000003 0.406 -0.037 Q 0.467 0.003 0.47100000000000003 0.077 Q 0.47100000000000003 0.14200000000000002 0.387 0.179 Q 0.327 0.20600000000000002 0.249 0.20600000000000002 Q 0.133 0.20600000000000002 0.068 0.152 Q 0.028 0.12 0.028 0.079 Q 0.028 0.029 0.079 -0.003 Q 0.097 -0.015 0.12 -0.021 Q 0.079 -0.053 0.076 -0.11 Q 0.076 -0.157 0.107 -0.193 Q 0.062 -0.23600000000000002 0.06 -0.296 Q 0.06 -0.365 0.12 -0.40900000000000003 Q 0.164 -0.442 0.222 -0.442 Q 0.28200000000000003 -0.442 0.328 -0.406 Q 0.376 -0.453 0.434 -0.453 Q 0.47300000000000003 -0.453 0.483 -0.417 Q 0.485 -0.41100000000000003 0.485 -0.404 Q 0.481 -0.378 0.456 -0.374 Q 0.434 -0.374 0.428 -0.395 Q 0.427 -0.399 0.427 -0.403 Q 0.427 -0.424 0.443 -0.43 Q 0.44 -0.431 0.433 -0.431 Q 0.384 -0.431 0.343 -0.392 Q 0.384 -0.354 0.384 -0.295 Q 0.384 -0.226 0.324 -0.182 Q 0.28 -0.149 0.222 -0.149 Q 0.166 -0.149 0.123 -0.18 M 0.25 0.183 L 0.25 0.183 Q 0.34500000000000003 0.183 0.394 0.133 Q 0.419 0.108 0.419 0.079 Q 0.419 0.005 0.301 -0.005 L 0.301 -0.005 L 0.3 -0.005 Q 0.274 -0.007 0.221 -0.007 L 0.162 -0.007 Q 0.115 -0.004 0.091 0.038 Q 0.08 0.057 0.08 0.079 Q 0.08 0.126 0.138 0.157 Q 0.185 0.183 0.25 0.183 Z"/></g><g transform="translate(20.497287822988678,23.517709677419354) scale(0.7,0.7)"><path fill="rgb(0,100,0)" stroke="none" paint-order="stroke fill markers" d=" M 0.449 -0.17400000000000002 L 0.449 -0.17400000000000002 L 0.421 0 L 0.05 0 Q 0.05 -0.025 0.056 -0.032 L 0.061 -0.037 L 0.253 -0.251 Q 0.358 -0.369 0.358 -0.47200000000000003 Q 0.358 -0.561 0.304 -0.607 L 0.303 -0.608 L 0.302 -0.608 Q 0.27 -0.635 0.224 -0.635 Q 0.152 -0.635 0.109 -0.5730000000000001 Q 0.097 -0.555 0.089 -0.533 Q 0.092 -0.534 0.10200000000000001 -0.534 Q 0.14200000000000002 -0.534 0.153 -0.498 L 0.153 -0.497 Q 0.155 -0.49 0.155 -0.482 Q 0.155 -0.442 0.117 -0.431 Q 0.109 -0.429 0.10300000000000001 -0.429 Q 0.066 -0.429 0.054 -0.46 Q 0.05 -0.47100000000000003 0.05 -0.485 Q 0.05 -0.562 0.109 -0.617 Q 0.162 -0.666 0.23700000000000002 -0.666 Q 0.34700000000000003 -0.666 0.40800000000000003 -0.592 Q 0.443 -0.549 0.448 -0.49 Q 0.449 -0.481 0.449 -0.47200000000000003 Q 0.449 -0.399 0.394 -0.333 Q 0.365 -0.299 0.304 -0.243 L 0.243 -0.189 L 0.233 -0.18 L 0.127 -0.077 L 0.307 -0.077 Q 0.395 -0.077 0.402 -0.085 Q 0.41200000000000003 -0.099 0.424 -0.17400000000000002 L 0.449 -0.17400000000000002 Z"/></g><g transform="translate(20.847287822988676,21.878709677419355)"><path fill="rgb(0,100,0)" stroke="none" paint-order="stroke fill markers" d=" M 0.662109375 2.35693359375 Q 0.5390625 2.248046875 0.451171875 2.10888671875 Q 0.36328125 1.9697265625 0.31005859375 1.81494140625 Q 0.2568359375 1.66015625 0.232421875 1.494873046875 Q 0.2080078125 1.32958984375 0.2080078125 1.16015625 Q 0.2080078125 0.98974609375 0.232421875 0.823974609375 Q 0.2568359375 0.658203125 0.309814453125 0.50390625 Q 0.36279296875 0.349609375 0.450927734375 0.210205078125 Q 0.5390625 0.07080078125 0.662109375 -0.0380859375 Q 0.662109375 -0.0400390625 0.6669921875 -0.0400390625 L 0.69287109375 -0.0400390625 Q 0.69580078125 -0.0400390625 0.698486328125 -0.037109375 Q 0.701171875 -0.0341796875 0.701171875 -0.03076171875 Q 0.701171875 -0.02685546875 0.69921875 -0.02490234375 Q 0.5849609375 0.087890625 0.506103515625 0.22607421875 Q 0.42724609375 0.3642578125 0.380859375 0.51708984375 Q 0.33447265625 0.669921875 0.314697265625 0.8310546875 Q 0.294921875 0.9921875 0.294921875 1.16015625 Q 0.294921875 1.32763671875 0.314453125 1.486572265625 Q 0.333984375 1.6455078125 0.380859375 1.80029296875 Q 0.427734375 1.955078125 0.5068359375 2.09326171875 Q 0.5859375 2.2314453125 0.69921875 2.34423828125 Q 0.701171875 2.34619140625 0.701171875 2.35009765625 Q 0.701171875 2.35302734375 0.6982421875 2.35595703125 Q 0.6953125 2.35888671875 0.69287109375 2.35888671875 L 0.6669921875 2.35888671875 Q 0.662109375 2.35888671875 0.662109375 2.35693359375 Z"/></g><g transform="translate(22.51907510365864,22.612201677419353)"><path fill="rgb(0,100,0)" stroke="none" paint-order="stroke fill markers" d=" M 0.294 -0.64 L 0.294 -0.079 Q 0.294 -0.049 0.306 -0.041 Q 0.323 -0.031 0.387 -0.031 L 0.419 -0.031 L 0.419 0 Q 0.384 -0.003 0.257 -0.003 Q 0.13 -0.003 0.095 0 L 0.095 -0.031 L 0.127 -0.031 Q 0.20400000000000001 -0.031 0.215 -0.049 L 0.216 -0.05 Q 0.22 -0.058 0.22 -0.079 L 0.22 -0.597 Q 0.168 -0.5710000000000001 0.089 -0.5710000000000001 L 0.089 -0.602 Q 0.209 -0.602 0.271 -0.666 Q 0.29 -0.666 0.293 -0.659 L 0.293 -0.659 L 0.293 -0.658 Q 0.294 -0.655 0.294 -0.64 Z"/></g><rect fill="rgb(0,100,0)" stroke="none" x="21.621852881436418" y="23.018710177419354" width="2.2944444444444447" height="0.039999"/><g transform="translate(21.621852881436418,23.974660677419354)"><path fill="rgb(0,100,0)" stroke="none" paint-order="stroke fill markers" d=" M 0.294 -0.64 L 0.294 -0.079 Q 0.294 -0.049 0.306 -0.041 Q 0.323 -0.031 0.387 -0.031 L 0.419 -0.031 L 0.419 0 Q 0.384 -0.003 0.257 -0.003 Q 0.13 -0.003 0.095 0 L 0.095 -0.031 L 0.127 -0.031 Q 0.20400000000000001 -0.031 0.215 -0.049 L 0.216 -0.05 Q 0.22 -0.058 0.22 -0.079 L 0.22 -0.597 Q 0.168 -0.5710000000000001 0.089 -0.5710000000000001 L 0.089 -0.602 Q 0.209 -0.602 0.271 -0.666 Q 0.29 -0.666 0.293 -0.659 L 0.293 -0.659 L 0.293 -0.658 Q 0.294 -0.655 0.294 -0.64 Z"/></g><g transform="translate(22.34407510365864,23.974660677419354)"><path fill="rgb(0,100,0)" stroke="none" paint-order="stroke fill markers" d=" M 0.661 -0.23 L 0.116 -0.23 Q 0.084 -0.23 0.083 -0.25 Q 0.083 -0.27 0.116 -0.27 L 0.661 -0.27 Q 0.6930000000000001 -0.27 0.6940000000000001 -0.25 Q 0.6940000000000001 -0.23 0.661 -0.23 Z"/></g><g transform="translate(23.34429732588086,23.974660677419354)"><path fill="rgb(0,100,0)" stroke="none" paint-order="stroke fill markers" d=" M 0.334 -0.302 L 0.3 -0.165 Q 0.28300000000000003 -0.097 0.28300000000000003 -0.077 Q 0.28300000000000003 -0.025 0.32 -0.014 Q 0.328 -0.011 0.338 -0.011 Q 0.388 -0.011 0.429 -0.061 Q 0.456 -0.093 0.47100000000000003 -0.14200000000000002 Q 0.47400000000000003 -0.153 0.484 -0.153 Q 0.496 -0.153 0.496 -0.14300000000000002 Q 0.496 -0.11800000000000001 0.465 -0.07100000000000001 Q 0.41100000000000003 0.011 0.336 0.011 Q 0.268 0.011 0.23700000000000002 -0.046 Q 0.231 -0.055 0.228 -0.065 Q 0.20400000000000001 -0.017 0.162 0.002 Q 0.14300000000000002 0.011 0.123 0.011 Q 0.063 0.011 0.039 -0.024 Q 0.029 -0.037 0.029 -0.055 Q 0.029 -0.092 0.061 -0.107 Q 0.07200000000000001 -0.113 0.084 -0.113 Q 0.114 -0.113 0.12 -0.088 Q 0.121 -0.083 0.121 -0.078 Q 0.121 -0.044 0.08700000000000001 -0.028 Q 0.081 -0.025 0.074 -0.024 Q 0.095 -0.011 0.124 -0.011 Q 0.177 -0.011 0.20800000000000002 -0.082 Q 0.214 -0.097 0.219 -0.115 Q 0.273 -0.319 0.273 -0.353 Q 0.267 -0.41500000000000004 0.219 -0.42 Q 0.167 -0.42 0.124 -0.367 L 0.124 -0.366 Q 0.124 -0.365 0.123 -0.365 Q 0.108 -0.34500000000000003 0.096 -0.319 Q 0.091 -0.307 0.08700000000000001 -0.295 L 0.085 -0.289 Q 0.083 -0.278 0.07200000000000001 -0.278 Q 0.06 -0.278 0.06 -0.28800000000000003 Q 0.06 -0.313 0.092 -0.36 Q 0.146 -0.442 0.221 -0.442 Q 0.298 -0.442 0.329 -0.366 Q 0.361 -0.428 0.41400000000000003 -0.44 Q 0.424 -0.442 0.434 -0.442 Q 0.493 -0.442 0.517 -0.40900000000000003 Q 0.527 -0.395 0.527 -0.376 Q 0.527 -0.335 0.49 -0.321 Q 0.481 -0.318 0.47300000000000003 -0.318 Q 0.442 -0.318 0.436 -0.34500000000000003 Q 0.435 -0.34900000000000003 0.435 -0.353 Q 0.435 -0.383 0.464 -0.4 Q 0.47300000000000003 -0.405 0.483 -0.40700000000000003 Q 0.462 -0.42 0.433 -0.42 Q 0.365 -0.42 0.337 -0.314 Q 0.335 -0.308 0.334 -0.302 Z"/></g><g transform="translate(23.954862384328607,21.878709677419355)"><path fill="rgb(0,100,0)" stroke="none" paint-order="stroke fill markers" d=" M 0.04296875 2.35888671875 Q 0.0341796875 2.35888671875 0.0341796875 2.35009765625 Q 0.0341796875 2.34619140625 0.0361328125 2.34423828125 Q 0.150390625 2.2314453125 0.22900390625 2.093017578125 Q 0.3076171875 1.95458984375 0.35400390625 1.802001953125 Q 0.400390625 1.6494140625 0.420166015625 1.489990234375 Q 0.43994140625 1.33056640625 0.43994140625 1.1591796875 Q 0.43994140625 0.98583984375 0.420166015625 0.82763671875 Q 0.400390625 0.66943359375 0.3544921875 0.517578125 Q 0.30859375 0.36572265625 0.22900390625 0.226318359375 Q 0.1494140625 0.0869140625 0.0361328125 -0.02490234375 Q 0.0341796875 -0.02685546875 0.0341796875 -0.03076171875 Q 0.0341796875 -0.0400390625 0.04296875 -0.0400390625 L 0.06884765625 -0.0400390625 Q 0.072265625 -0.0400390625 0.07421875 -0.0380859375 Q 0.19775390625 0.0712890625 0.28564453125 0.210693359375 Q 0.37353515625 0.35009765625 0.42626953125 0.5048828125 Q 0.47900390625 0.65966796875 0.5029296875 0.82470703125 Q 0.52685546875 0.98974609375 0.52685546875 1.16015625 Q 0.52685546875 1.32958984375 0.5029296875 1.494140625 Q 0.47900390625 1.65869140625 0.42626953125 1.813720703125 Q 0.37353515625 1.96875 0.28564453125 2.108154296875 Q 0.19775390625 2.24755859375 0.07421875 2.35693359375 Q 0.072265625 2.35888671875 0.06884765625 2.35888671875 L 0.04296875 2.35888671875 Z"/></g></g></g></g></svg>